<svg version="1.2" xmlns="http://www.w3.org/2000/svg" viewBox="0 0 2800 2220" width="700" height="555"><style>.a{fill:#046d3d}.b{fill:#04994d}.c{fill:#3fbd51}</style><path class="a" d="m2147.2 1382.4c0.2 1-0.4 2.2-1.2 2.7-0.8 0.4-4.9 2.2-9 4-4.1 1.7-10 4.3-13 5.6-3 1.4-7.5 3.3-10 4.3-2.5 1-7.9 3.3-12 5.3-4.1 1.9-9.1 4.1-11 4.9-1.9 0.9-8.4 3.7-14.5 6.4-6 2.6-13.5 6.1-16.5 7.6-3.9 2-5.9 2.5-6.7 1.8q-1.3-1-1.8 0c-0.3 0.5 0.6 1.9 2 3 1.4 1.1 2.5 2.2 2.5 2.5 0 0.3 1.5 2 3.3 3.9 1.7 1.8 5.3 6.1 8 9.5 2.6 3.3 4.7 6.3 4.7 6.6 0 0.3 1.4 2 3.1 3.7 1.8 1.8 4.9 5.8 7 8.8 2.1 3 5.2 7.1 6.9 9 1.8 1.9 4.7 5.7 6.4 8.5 1.8 2.7 3.9 5.7 4.7 6.5 0.8 0.9 2.9 3.5 4.7 5.8 1.7 2.3 3.2 4.6 3.2 5.2 0 0.5 0.9 1.4 2 2 1.1 0.5 2 1.7 2 2.5 0 0.8 0.6 1.6 1.3 1.6 0.6 0.1 1.5 0.1 2 0 0.4 0 0.5 1 0.2 2.4-0.3 1.4-0.3 2.5 0 2.5 0.3 0 2-0.6 3.8-1.4 1.7-0.7 5.9-2.4 9.2-3.6 3.3-1.2 7-2.6 8.3-3.1 1.2-0.5 3.2-1.3 4.5-1.8 1.2-0.6 7.4-2.9 13.7-5.1 6.3-2.3 13.4-5.1 15.8-6.1 2.3-1 4.5-1.9 5-1.9 0.4 0 2.5-0.7 4.7-1.6 2.2-1 6.7-2.7 10-3.9 3.3-1.3 10.4-3.8 15.7-5.6 5.4-1.9 9.8-4 9.8-4.7 0-0.6-0.3-1.1-0.7-1.1-0.5 0.1-1.4 0.1-2 0-0.7 0-1.3-0.8-1.3-1.6 0-0.8-5-8.1-11.2-16.3-6.1-8.1-11.7-15.2-12.2-15.9-0.6-0.6-2.5-2.8-4.3-5-1.7-2.1-4.6-5.9-6.5-8.5-1.8-2.6-7.5-10.2-12.7-17-5.2-6.8-10.1-13-11-13.8-0.8-0.8-2.8-3.5-4.4-6-1.5-2.5-2.7-3.7-2.5-2.6zm-1295.5 80.6c-1.2 1.5-5.1 6.5-8.7 11-3.6 4.5-8.7 10.9-11.5 14.3-2.7 3.4-7.9 10-11.4 14.7-3.5 4.7-7.2 9.4-8.2 10.5-1 1.1-6.1 7.4-11.2 14-5.2 6.6-10.1 13.5-11 15.2l-1.7 3.3c5 3.1 7.1 4 7.8 4 0.6 0 6 1.8 12 4.1 5.9 2.3 14.8 5.7 19.7 7.6 5 1.9 13.1 5 18 6.8 5 1.8 12.8 4.8 17.5 6.5 4.7 1.8 12.1 4.5 16.5 6.1 4.4 1.6 7.5 2.4 6.8 1.7-0.7-0.8-0.8-1.7-0.3-2.3 0.5-0.6 3.1-3.5 5.7-6.5 2.6-3.1 8.6-10.4 13.3-16.4 4.7-6 14.8-18.8 22.5-28.5 7.7-9.7 15.2-19.2 16.6-21.1 1.4-1.9 3.2-4.2 4-5 0.8-0.9 2.3-2.6 3.4-3.8l2-2.2c-3.1 0.1-13.4-3.7-25-8.3-11.5-4.7-22.1-9-23.5-9.5-1.4-0.6-5.4-2.1-9-3.5-3.6-1.4-11.9-4.6-18.5-7.2-6.6-2.5-13.1-5-14.5-5.6-1.4-0.5-4-1.3-5.8-1.8-2.9-0.9-3.5-0.7-5.5 1.9zm603 25.4c1.5 1.9 3.1 3.3 3.6 3 0.4-0.2-0.5-1.8-2-3.4-1.6-1.7-3.2-3-3.6-3-0.5 0 0.4 1.5 2 3.4zm16.4 20.6c1.9 2.1 3.5 3.5 3.7 3 0.1-0.6-1-2.3-2.5-4-1.6-1.6-3.2-2.9-3.7-3-0.4 0 0.7 1.8 2.5 4zm276.1 23.8c0.2 0.8-0.4 1.8-1.2 2.2-0.8 0.5-3.7 1.8-6.5 3-2.7 1.2-6.8 3-9 4-2.2 1-9.3 4.3-15.7 7.4-6.5 3.1-12 5.6-12.3 5.6-0.3 0-3.5 1.4-7.2 3.1-3.8 1.7-13.5 6.4-21.8 10.5-8.2 4.1-15.8 7.4-16.7 7.4-1.5 0-1.3 0.5 1 2.9 1.5 1.6 4.3 4.8 6.2 7.2 1.9 2.3 4.4 5.2 5.6 6.3 1.1 1.2 4.5 5.5 7.6 9.6 3 4.1 7.2 9.3 9.3 11.5 2 2.2 5.4 6.5 7.5 9.5 2.1 3 5.2 7 6.9 8.7 1.7 1.8 4.3 5.2 5.8 7.5 1.5 2.4 3.3 4.6 4 5 0.7 0.5 1.3 1.2 1.3 1.8 0 0.5 1.6 2.6 3.5 4.5 1.9 1.9 3.5 4.3 3.5 5.2 0 1.1 0.8 1.8 1.8 1.8 0.9 0 3.3-0.8 5.2-1.7 1.9-0.8 6.4-2.5 10-3.7 3.6-1.2 7.4-2.6 8.5-3 1.1-0.5 3.1-1.3 4.5-1.9 1.4-0.6 7.7-3 14-5.2 6.3-2.3 13.4-5.1 15.8-6.1 2.3-1 4.7-1.9 5.2-1.9 0.6 0 2.9-0.9 5.3-1.9 2.3-1 7.4-2.9 11.2-4.2 3.9-1.3 9.5-3.6 12.5-5.1 3-1.5 4.9-2.7 4.3-2.7-0.7-0.1-1.3-0.6-1.3-1.1 0-0.6-1-2.3-2.2-3.9-1.3-1.5-3-3.8-3.8-5.1-0.8-1.2-6.4-8.4-12.3-15.9-6-7.5-11.9-14.7-13-16.1-1.2-1.4-5.2-6.3-8.8-11-3.6-4.7-7.2-9.2-8-10-0.8-0.8-3.2-3.8-5.2-6.5-2.1-2.8-5.2-6.8-7-8.9-1.7-2.2-4.4-5.4-6-7-1.5-1.7-2.6-2.5-2.5-1.8zm-224.2 40c1.9 2.1 4 3.7 4.5 3.4 0.6-0.2-0.6-1.9-2.5-3.8-1.9-1.8-3.9-3.4-4.5-3.4-0.5 0 0.6 1.7 2.5 3.8zm-265.6 26.7c-0.5 0.7-3.3 4.3-6.2 8.1-3 3.8-7.4 9.1-9.8 11.9-2.4 2.7-6.8 8-9.7 11.6-2.8 3.6-10.6 13.2-17.2 21.3-6.6 8.1-13.3 16.4-15 18.5-1.6 2.1-5.7 7.2-9.1 11.2-3.3 4.1-6.8 8.6-7.7 10.1-1.7 2.8-1.7 2.8 1.1 3.9 1.5 0.6 6.1 2.4 10.2 3.9 4.1 1.6 10.7 4 14.5 5.5 3.9 1.4 8.4 3.1 10 3.7 1.7 0.5 3.9 1.3 5 1.8 1.1 0.4 5.8 2.3 10.5 4 4.7 1.8 11 4.1 14 5.2 3 1.2 6.4 2.4 7.5 2.8 1.1 0.5 5.6 2.2 10 3.8 4.4 1.7 9.1 3.3 10.5 3.6 2 0.5 2.8 0 4-2.2 0.8-1.5 4.2-5.9 7.5-9.7 3.3-3.8 8.5-10.2 11.5-14 3-3.8 7-8.8 8.9-11.1 2-2.2 9-10.7 15.6-18.9 6.6-8.2 16-19.6 20.8-25.4 4.9-5.8 8.7-11.2 8.5-11.9-0.2-0.8-3.2-2.6-6.8-4.1-3.6-1.6-13.9-5.6-23-9.1-9.1-3.4-19.2-7.3-22.5-8.5-3.3-1.3-12.1-4.7-19.5-7.5-7.4-2.9-15.1-5.7-17-6.2-1.9-0.5-4-1.6-4.6-2.3-0.9-1.1-1.3-1.1-2 0z"/><path class="b" d="m1399.3 241.6c-0.8 0.2-1.1 1.4-0.8 2.7 0.3 1.2 0.8 3.5 1.2 5.2 0.3 1.7 0.8 39.8 1 84.8l0.3 81.7c4.3 4.9 6.5 7.4 7.8 8.7 1.2 1.3 2 2.4 1.7 2.6-0.3 0.1 0.6 1.4 2 3 1.4 1.5 2.5 3.1 2.5 3.7 0 0.6 1.5 2.5 3.3 4.3 1.7 1.8 4.9 5.8 7 9 2.4 3.8 4.1 5.5 5 5q1.2-0.8 0.5 0.5c-0.5 0.7 0 2 1 3 0.9 1 2.9 3.7 4.5 6 1.5 2.3 3.6 5 4.7 6 1.1 0.9 2 2.1 2.1 2.7 0 0.6 1.8 2.6 3.9 4.5 2.2 1.9 3.7 3.7 3.5 4-0.3 0.3 0.6 1.7 2 3.3 1.4 1.5 2.5 3 2.5 3.5 0 0.4 1.6 2.5 3.6 4.7 2 2.2 4.3 5.1 5 6.5 0.7 1.4 2.6 4 4.3 5.8 1.7 1.7 3.1 3.5 3.1 4 0.1 0.4 1.9 2.4 4 4.5 2.2 2 3.8 3.8 3.5 4-0.3 0.1 0.8 2 2.5 4.2 1.6 2.2 4.3 5.6 6 7.5 1.6 1.9 4.5 5.8 6.4 8.5 1.9 2.8 3.9 4.9 4.5 4.8 0.6-0.2 0.9 0.2 0.6 0.7-0.3 0.5 0.3 1.8 1.3 2.8 0.9 0.9 2.6 3.1 3.6 4.7 1.1 1.7 2.5 3.6 3 4.3 0.6 0.7 1.9 2.2 2.9 3.3 0.9 1 1.7 2.2 1.7 2.7 0.1 0.4 2 2.4 4.3 4.5 2.3 2.1 3.9 3.8 3.5 3.7-0.5 0 0.5 1.9 2.2 4.3 1.6 2.3 4.2 5.6 5.7 7.3 1.6 1.7 4.6 5.6 6.8 8.8 2.2 3.1 4.3 5.7 4.8 5.6 0.4 0 0.7 0.6 0.7 1.3 0.1 0.6 1.8 2.8 3.8 4.8 2 2 3.9 4.2 4 5 0.2 0.8 2.2 3.7 4.5 6.4 2.3 2.8 4.7 5.7 5.4 6.5 0.8 0.8 2.6 3.4 4.1 5.7 1.5 2.2 4.3 6 6.2 8.3 1.9 2.4 4.3 5.1 5.3 6.1 0.9 1.1 1.7 2.2 1.7 2.7 0 0.4 1.3 2.3 3 4.2 1.7 1.9 4.6 5.2 6.5 7.3 1.9 2 3.3 3.8 3 4-0.3 0.1 0.6 1.4 2 3 1.4 1.5 2.5 3 2.5 3.5 0 0.4 2 2.8 4.5 5.5 2.5 2.6 4.5 5.2 4.5 5.7 0 0.5 1.6 2.7 3.5 4.8 1.9 2 3.5 4.2 3.5 4.7 0.1 0.5 1.9 2.7 4 4.8 2.2 2 3.8 3.7 3.5 3.7-0.3 0 0.7 1.7 2.3 3.9 1.5 2.1 4.2 5.6 5.9 7.7 1.8 2.2 4.6 5.9 6.2 8.4 1.7 2.5 5.1 6.8 7.6 9.5 2.6 2.8 5.3 6.2 6.1 7.8 0.8 1.5 2.3 3.7 3.4 5 1.2 1.2 3.5 3.7 5.3 5.6 1.8 1.8 3.2 3.7 3.2 4.1 0 0.4 1.4 2.7 3.1 5.1 1.7 2.4 4.7 6 6.6 7.9 1.9 1.9 3.7 4.4 4.1 5.5 0.4 1.1 2 3.5 3.7 5.3 1.6 1.7 3 3.5 3 4 0.1 0.4 1.9 2.4 4 4.5 2.2 2 3.8 3.7 3.5 3.7-0.3 0 0.7 1.7 2.3 3.9 1.5 2.1 4.2 5.6 5.9 7.7 1.8 2.2 4.6 5.9 6.2 8.4 1.7 2.5 5.1 6.8 7.6 9.5 2.6 2.8 5.3 6.2 6.1 7.8 0.8 1.5 2.3 3.7 3.4 5 1.2 1.2 3.5 3.8 5.3 5.7 1.8 1.9 3.8 4.7 4.5 6.3 0.7 1.5 1.7 2.7 2.2 2.7 0.6 0 1 0.6 1 1.3 0 0.6 1.7 3 3.7 5.2 2.1 2.2 4.2 4.9 4.8 6 0.6 1.1 1.7 2.8 2.5 3.8 0.8 1 2.3 2.7 3.3 3.8 0.9 1 1.7 2.2 1.7 2.7 0.1 0.4 1.9 2.4 4 4.5 2.2 2 3.8 3.8 3.5 4-0.3 0.1 0.6 1.4 2 3 1.4 1.5 2.5 3 2.5 3.5 0 0.4 1.6 2.5 3.6 4.7 2 2.2 4.2 5.1 4.9 6.5 0.7 1.4 2.6 3.9 4.1 5.5 1.6 1.7 3.2 3.9 3.7 4.8 0.4 0.9 1.2 1.7 1.7 1.7 0.6 0 2.3 2.1 4 4.8 1.6 2.6 3.8 5.7 4.7 7 1 1.2 3.6 4.2 5.8 6.6 2.2 2.3 4.2 4.9 4.4 5.7 0.2 0.8 1.4 2.9 2.7 4.7 1.5 2 2.9 2.9 3.6 2.5q1.3-0.8 0.5 0.5c-0.4 0.7 0.3 2.1 1.8 3.5 1.3 1.2 2.4 2.7 2.5 3.2 0 0.5 1.1 2.4 2.5 4 1.3 1.6 3.1 3.7 3.9 4.5 0.9 0.8 1.6 2 1.6 2.5 0.1 0.5 2 2.7 4.3 4.8 2.3 2.1 3.9 3.8 3.5 3.7-0.5 0 0.5 1.9 2.2 4.3 1.6 2.3 4.2 5.6 5.7 7.3 1.6 1.6 4.5 5.6 6.6 8.7 2 3.1 4.2 5.7 4.7 5.7 0.6 0 1 0.7 1 1.5 0 0.8 0.7 1.8 1.6 2.3 0.9 0.4 2.9 2.7 4.5 5.2 1.6 2.5 3.7 5.5 4.6 6.8 1 1.3 3.7 4.2 6 6.5 2.3 2.3 4 4.5 3.8 5-0.3 0.4 1.6 3.3 4.1 6.5 2.5 3.1 5.4 6.3 6.5 7 1 0.6 1.9 1.8 1.9 2.5 0 0.6 0.8 2.3 1.7 3.6 1 1.3 2.6 3.2 3.6 4.2 0.9 1.1 1.7 2.2 1.7 2.7 0.1 0.4 1.9 2.4 4 4.5 2.2 2 3.8 3.7 3.5 3.7-0.3 0 0.8 1.9 2.5 4.3 1.6 2.3 4.2 5.6 5.7 7.3 1.6 1.6 4.4 5.5 6.4 8.5 2 3 5.6 7.4 7.9 9.9 2.3 2.5 4.8 5.7 5.6 7.3 0.8 1.5 2.3 3.7 3.4 5 1.2 1.2 3.5 3.8 5.3 5.7 1.8 1.9 3.8 4.7 4.5 6.3 0.7 1.5 1.7 2.7 2.2 2.7 0.6 0 1 0.6 1 1.3 0 0.6 2 3.3 4.5 6 2.5 2.6 4.7 5.5 5 6.5 0.2 0.9 1.8 3.2 3.5 5 1.6 1.7 3 3.5 3 4 0.1 0.4 1.8 2.3 3.8 4.2 2 1.9 3.8 4 3.9 4.5 0.1 0.6 2.4 3.8 5 7.3 2.6 3.4 5 6.2 5.3 6.2 0.3-0.1 1.1 1.2 1.7 2.7 0.7 1.5 2.9 4.6 4.8 6.8 2 2.2 3.6 4.3 3.5 4.8 0 0.4 0.7 1 1.6 1.5 0.9 0.4 2.9 2.7 4.5 5.2 1.6 2.5 3.7 5.5 4.6 6.8 1 1.3 3.6 4.1 5.8 6.3 2.2 2.2 4.1 4.8 4.2 5.7 0.2 0.9 1.9 3.7 4 6.2 2 2.5 4.1 5 4.7 5.5 0.6 0.5 2 2.3 3.1 4 1 1.7 2.4 3.6 2.9 4.3 0.6 0.7 1.9 2.2 2.9 3.3 0.9 1 1.7 2.2 1.7 2.7 0.1 0.4 1.9 2.3 4 4.2 2.2 1.9 3.7 3.7 3.5 4-0.3 0.3 0.6 1.7 2 3.3 1.4 1.5 2.5 3 2.5 3.5 0 0.4 1.6 2.5 3.6 4.7 2 2.2 4.3 5.1 5 6.5 0.7 1.4 2.6 4 4.3 5.8 1.7 1.7 3.1 3.4 3.1 3.7 0 0.3 1.4 2 3.1 3.8 1.8 1.7 3.8 4.4 4.5 6 0.8 1.5 2.2 3.5 3.2 4.6 0.9 1 3.1 3.6 4.9 5.7 1.7 2.2 4.7 6.2 6.6 8.9 1.9 2.8 4 4.9 4.6 4.8 0.6-0.2 0.9 0.2 0.6 0.7-0.3 0.5 0.6 2 2 3.3 1.3 1.2 2.4 2.7 2.5 3.2 0 0.5 1.1 2.3 2.5 4 1.3 1.7 3.1 3.7 3.9 4.5 0.9 0.8 1.6 2 1.6 2.5 0.1 0.5 1.9 2.6 4 4.5 2.2 1.9 3.7 3.7 3.5 4-0.3 0.3 0.6 1.7 2 3.3 1.4 1.5 2.5 3 2.5 3.5 0 0.4 1.6 2.5 3.6 4.7 2 2.2 4.3 5.1 5 6.5 0.7 1.4 2.6 4 4.3 5.8 1.7 1.7 3.1 3.5 3.1 4 0.1 0.4 1.8 2.3 3.8 4.2 2 1.9 3.8 3.8 4 4.3 0.1 0.4 0.2 1 0.2 1.5-0.1 0.4 1 1.9 2.2 3.3 1.3 1.5 3.7 4.4 5.5 6.5 1.7 2.2 4.7 6.2 6.6 8.9 1.9 2.8 4 4.9 4.6 4.8 0.6-0.2 1.1 0.4 1.1 1.2 0 0.8 1.8 3.3 4 5.5 2.2 2.2 3.8 4 3.5 4-0.3 0 0.8 2.1 2.4 4.8 1.7 2.6 3.8 5.6 4.8 6.7 1.1 1.1 6.2 7.5 11.4 14.3 5.2 6.8 10.9 14.4 12.7 17 1.9 2.6 4.8 6.4 6.5 8.5 1.8 2.2 3.7 4.4 4.3 5 0.5 0.7 6.1 7.8 12.2 16 6.2 8.1 11.2 15.4 11.2 16.2 0 0.8 0.3 1.5 0.8 1.6 0.4 0 1.9 0.3 3.5 0.5 1.5 0.2 5.1-0.5 8-1.7 2.8-1.1 9-3.4 13.7-5.1 4.7-1.6 8.9-3.4 9.5-3.9 0.5-0.5 1.5-0.9 2.2-0.9 0.7 0 6.1-1.8 12.1-4.1 5.9-2.2 13.2-5.1 16.2-6.4 3-1.3 7.5-3 10-3.8 2.5-0.9 8.8-3.1 14-5 5.2-1.9 10.3-3.7 11.3-4.1 0.9-0.3 1.7-1.5 1.7-2.6 0-1.1-1.4-3.9-3.2-6.2-1.7-2.4-3.6-4.8-4.1-5.3q-1-1-0.2 0.5c0.8 1.3 0.7 1.3-0.9 0-0.9-0.8-1.7-2.2-1.7-3 0-0.8-1.2-3-2.7-4.8-1.5-1.9-4.2-4.9-5.9-6.8-1.8-1.9-3.4-4-3.6-4.6-0.1-0.7-2.7-4.3-5.7-8.1-3-3.7-5.8-6.7-6.2-6.7-0.5 0-0.6-0.7-0.3-1.5 0.3-0.9-0.3-1.8-1.4-2.2-1.1-0.5-2.1-1.3-2.3-1.8-0.2-0.5-0.6-0.9-1-0.7-0.5 0.1-0.5-0.3 0-0.9 0.4-0.6 0.2-1.4-0.4-1.8-0.5-0.3-2.6-2.7-4.5-5.3-1.8-2.6-3.7-4.5-4.1-4.3-0.5 0.3-0.7 0.2-0.6-0.2 0.1-0.5-1-2.7-2.5-5-1.5-2.4-3.1-4.1-3.7-3.8-0.6 0.3-0.7-0.1-0.2-1.1 0.5-1.1 0.1-1.7-1.5-2-1.3-0.2-2.1-0.9-1.8-1.4 0.3-0.5-0.3-1.6-1.2-2.2-1-0.7-1.9-2-2.1-2.8-0.1-0.8-1.4-2.5-2.7-3.7-1.4-1.3-2.5-2.8-2.5-3.3 0-0.5-0.6-0.7-1.2-0.2q-1.3 0.7-0.5-0.5c0.4-0.8-0.2-2.4-1.5-3.9-1.3-1.5-3.5-4-5-5.5-1.6-1.6-2.9-3.2-3-3.6-0.2-0.5-0.6-0.7-1-0.5-0.5 0.1-0.5-0.3 0-0.9 0.4-0.6 0.2-1.4-0.4-1.8-0.5-0.3-2.6-2.7-4.5-5.3-1.8-2.6-3.7-4.5-4.1-4.3-0.5 0.3-0.7 0.2-0.6-0.2 0.1-0.5-1-2.7-2.5-5-1.5-2.4-3.1-4.1-3.7-3.8-0.6 0.3-0.7-0.1-0.2-1.1 0.5-1.1 0.1-1.7-1.5-2-1.3-0.2-2.1-0.9-1.8-1.4 0.3-0.5-0.3-1.6-1.2-2.2-1-0.7-1.9-2-2.1-2.8-0.1-0.8-1.4-2.5-2.7-3.7-1.4-1.3-2.5-2.8-2.5-3.3 0-0.5-0.5-1-1.2-1-0.6 0-0.8-0.3-0.5-0.7 0.4-0.5-0.9-2.1-2.9-3.8-2.1-1.7-3.4-3.5-3-4.2 0.3-0.7 0-1.6-0.7-2-0.6-0.5-3.2-3.5-5.7-6.8-2.4-3.3-5.7-7.5-7.2-9.2-1.5-1.8-3.1-3-3.5-2.5-0.3 0.4-0.3 0.1 0-0.5 0.4-0.8-1.1-3.6-3.4-6.5-2.3-2.9-4.6-5.2-5-5-0.5 0.1-0.8-0.1-0.7-0.5 0.1-0.5-0.9-2.5-2.2-4.5-1.4-2.1-3.1-3.8-3.7-3.8-0.7 0-1-0.6-0.7-1.2 0.3-0.7-0.9-2.7-2.7-4.4-1.9-1.7-3.5-3.7-3.7-4.5-0.2-0.8-1.1-2.2-2-3.1-0.9-1-2-1.5-2.4-1.3-0.5 0.3-0.8-0.4-0.8-1.5q0-2-1.2-1.2-1.3 0.7-0.5-0.5c0.4-0.8-0.2-2.3-1.5-3.8-1.3-1.3-2.6-2.2-3-2-0.5 0.3-0.9-0.1-1-0.7 0-0.7-0.1-1.8-0.2-2.4-0.1-0.7-1-2.1-2.1-3.3-1.1-1.1-2.4-1.7-3-1.3-0.6 0.4-0.7 0.2-0.2-0.5 0.4-0.8-0.6-3-2.5-5.5-1.8-2.4-4.5-5.8-6-7.5-1.6-1.8-3.1-3-3.5-2.5-0.3 0.4-0.3 0.1 0-0.5 0.4-0.8-1.3-3.9-4-7.3-2.7-3.3-5.2-5.6-5.8-5.2-0.6 0.4-0.7 0.2-0.2-0.6 0.4-0.6 0.1-1.8-0.5-2.5-0.7-0.8-2.2-2.6-3.3-4.2-1.1-1.5-3.5-4.3-5.2-6.2-1.8-1.8-3.4-3.9-3.6-4.5-0.1-0.7-2.7-4.3-5.7-8.1-3-3.7-5.8-6.7-6.2-6.7-0.5 0-0.6-0.5-0.3-1 0.3-0.5 0.1-1.7-0.5-2.5-0.6-0.8-1.4-1.3-2-1-0.6 0.3-0.9-0.1-0.7-0.7 0.1-0.7-0.4-1.2-1-1-0.8 0.1-1-0.3-0.5-0.9 0.4-0.6 0.2-1.4-0.4-1.8-0.6-0.3-2.5-2.7-4.2-5.3-1.8-2.7-3.6-4.6-4.2-4.3-0.6 0.3-0.9 0.2-0.8-0.2 0.1-0.5-1.5-3.4-3.7-6.6-2.2-3.2-4.6-5.8-5.2-5.7-0.7 0-1.1-0.5-0.8-1 0.3-0.5-0.3-1.6-1.2-2.2-1-0.7-1.9-2-2.1-2.8-0.1-0.8-1.4-2.5-2.7-3.7-1.4-1.3-2.5-2.8-2.5-3.3 0-0.5-0.5-1-1.2-1-0.6 0-0.8-0.3-0.5-0.7 0.4-0.5-0.8-2.1-2.6-3.6-1.7-1.6-3.2-3.4-3.2-4 0-0.7-0.9-2.2-2-3.4-1.1-1.2-2.4-1.9-3-1.5-0.6 0.4-0.7 0.2-0.2-0.5 0.4-0.8-0.6-3-2.5-5.5-1.8-2.4-4.5-5.8-6-7.5-1.6-1.8-3.1-3-3.5-2.5-0.3 0.4-0.3 0.1 0-0.5 0.4-0.8-1.1-3.6-3.4-6.5-2.3-2.9-4.6-5.2-5-5-0.5 0.1-0.8-0.2-0.6-0.6 0.1-0.5-1.4-3-3.3-5.6-1.9-2.6-5.2-6.5-7.2-8.7-2.1-2.1-3.6-4.4-3.3-4.9 0.3-0.5-0.6-1.9-2-3-1.4-1.1-2.5-2.5-2.5-3 0-0.5-0.6-0.7-1.2-0.3q-1.3 0.8-0.5-0.5c0.4-0.7-0.6-2.5-2.5-4.5-1.8-1.8-3.2-3.9-3-4.5 0.1-0.7-0.7-1.5-1.9-1.9-1.1-0.5-2.1-1.3-2.2-1.8-0.1-0.5-0.5-0.9-0.9-0.7-0.5 0.1-0.5-0.3 0-0.9 0.4-0.6 0.2-1.4-0.4-1.8-0.6-0.3-2.5-2.7-4.2-5.3-1.8-2.7-3.6-4.6-4.2-4.3-0.5 0.3-0.9 0.2-0.8-0.2 0.1-0.5-1-2.7-2.5-5-1.5-2.4-3.1-4.1-3.7-3.8-0.6 0.3-0.7-0.1-0.2-1.1 0.5-1.1 0.1-1.7-1.5-2-1.3-0.2-2.1-0.9-1.8-1.4 0.3-0.5-0.3-1.6-1.2-2.3-1-0.6-1.9-1.9-2.1-2.7-0.1-0.8-1.4-2.5-2.7-3.8-1.4-1.2-2.5-2.7-2.5-3.2 0-0.5-0.5-0.7-1.2-0.2q-1.2 0.7-0.7-0.8c0.3-0.8-0.2-2.3-1-3.3-0.9-0.9-2.2-1.7-2.8-1.7-0.7 0-1.4-0.6-1.5-1.3 0-0.6-0.2-1.7-0.2-2.2-0.1-0.5-1-2-2.1-3.2-1.1-1.2-2.4-1.9-3-1.5-0.6 0.4-0.7 0.2-0.2-0.6 0.4-0.7-0.6-2.9-2.5-5.4-1.8-2.4-4.5-5.8-6-7.5-1.6-1.8-3.1-3-3.5-2.5-0.3 0.4-0.3 0.1 0-0.5 0.4-0.8-1.3-3.9-4-7.3-2.7-3.3-5.2-5.6-5.8-5.2-0.6 0.4-0.7 0.2-0.2-0.5 0.4-0.8-0.7-3-2.8-5.5-1.8-2.4-4.8-5.8-6.5-7.5-1.6-1.8-3.1-3.9-3.3-4.5-0.1-0.7-2.5-4.2-5.2-7.7-2.8-3.6-6.2-7.7-7.7-9.3-1.6-1.5-2.9-3.1-3-3.5-0.2-0.5-0.6-0.7-1-0.5-0.5 0.1-0.5-0.3 0-0.9 0.4-0.6 0.2-1.4-0.4-1.8-0.5-0.3-2.6-2.7-4.5-5.3-1.8-2.6-3.7-4.5-4.1-4.3-0.5 0.3-0.7 0.2-0.6-0.2 0.1-0.5-0.9-2.5-2.2-4.5-1.4-2.1-3.1-3.8-3.7-3.8-0.7 0-1.1-0.6-0.8-1.2 0.2-0.7-0.7-2.5-2-4-1.4-1.6-2.9-2.8-3.5-2.8-0.5 0-0.8-0.5-0.5-1 0.3-0.5-0.8-2.4-2.5-4-1.7-1.6-3-3.5-3-4 0-0.5-0.6-0.7-1.2-0.3q-1.3 0.8-0.5-0.5c0.4-0.7-0.2-2.2-1.5-3.7-1.3-1.3-2.6-2.2-3-2-0.5 0.3-0.9-0.1-1-0.7 0-0.7-0.1-1.8-0.2-2.4-0.1-0.7-1-2.1-2.1-3.3-1.1-1.1-2.4-1.7-3-1.3-0.6 0.4-0.7 0.2-0.2-0.5 0.4-0.8-1-3.5-3.5-6.8-2.4-3-4.6-5.2-5-5-0.5 0.3-0.7 0.2-0.6-0.2 0-0.5-0.2-1.6-0.5-2.5-0.4-1-1-1.6-1.4-1.4-0.5 0.2-0.8-0.1-0.9-0.7 0-0.7-1.9-3.8-4.2-6.9-2.8-3.8-4.6-5.5-5.4-5q-1.3 0.7-0.5-0.5c0.4-0.8-0.7-3-2.8-5.5-1.8-2.4-4.8-5.8-6.5-7.5-1.6-1.8-3.1-3.9-3.3-4.5-0.1-0.7-2.5-4.2-5.2-7.7-2.8-3.6-6.2-7.7-7.7-9.3-1.6-1.5-2.8-3.1-2.9-3.5-0.1-0.5-0.5-0.7-1-0.5-0.5 0.1-0.6-0.3-0.1-0.9 0.4-0.6 0.2-1.4-0.4-1.8-0.5-0.3-2.6-2.7-4.5-5.3-1.8-2.6-3.7-4.5-4.1-4.3-0.5 0.3-0.7 0.2-0.6-0.2 0.1-0.5-0.9-2.5-2.2-4.5-1.4-2.1-3.1-3.8-3.7-3.8-0.8 0-1-0.6-0.5-1.6 0.5-1.1 0.1-1.7-1.5-2-1.3-0.2-2.1-0.9-1.8-1.4 0.3-0.5-0.3-1.6-1.2-2.2-1-0.7-1.9-2-2.1-2.8-0.1-0.8-1.4-2.5-2.7-3.7-1.4-1.3-2.5-2.8-2.5-3.3 0-0.5-0.6-0.7-1.2-0.3q-1.3 0.8-0.5-0.5c0.4-0.7-0.1-2.1-1-3.2-1-1-2.1-1.7-2.5-1.5-0.5 0.3-1.2-0.4-1.8-1.5-0.5-1.1-0.8-2.3-0.5-2.7 0.2-0.5-0.6-1.8-1.8-3.1-1.2-1.2-2.6-1.9-3.1-1.5-0.5 0.5-0.6 0.2-0.3-0.4 0.4-0.7-0.8-3.2-2.5-5.5-1.8-2.4-4.5-5.8-6-7.5-1.6-1.8-2.9-3.1-3-2.9-0.2 0.2-0.3-0.1-0.4-0.7 0-0.7-1.9-3.8-4.2-6.9-2.8-3.8-4.6-5.5-5.4-5q-1.3 0.7-0.5-0.5c0.4-0.8-0.5-2.6-2.3-4.5-1.6-1.8-3-3.6-3-4 0-0.5-1.8-2.6-4-4.8-2.2-2.2-3.8-4.5-3.5-5 0.3-0.5-0.6-1.9-2-3-1.4-1.1-2.5-2.3-2.5-2.7 0-0.5-1.7-2.7-3.7-4.9-2.1-2.3-3.7-4.7-3.5-5.3 0.1-0.6-0.7-1.4-1.7-1.8-1.1-0.5-2.1-1.2-2.3-1.8-0.2-0.5-0.6-0.9-1-0.7-0.5 0.1-0.5-0.3 0-0.9 0.4-0.6 0.2-1.4-0.4-1.8-0.5-0.3-2.6-2.7-4.5-5.3-1.8-2.6-3.7-4.5-4.1-4.3-0.5 0.3-0.7 0.2-0.6-0.2 0.1-0.5-1-2.7-2.5-5-1.5-2.4-3.1-4.1-3.7-3.8-0.6 0.3-0.7-0.1-0.2-1.1 0.5-1.1 0.1-1.7-1.5-2-1.3-0.2-2.1-0.9-1.8-1.4 0.3-0.5-0.3-1.6-1.2-2.2-1-0.7-1.9-2-2.1-2.8-0.1-0.8-1.4-2.5-2.7-3.7-1.4-1.3-2.5-2.8-2.5-3.3 0-0.5-0.5-1-1.2-1-0.6 0-0.8-0.3-0.5-0.7 0.4-0.5-0.9-2.2-2.9-3.8-2.1-1.7-3.4-3.5-3-4.2 0.3-0.7 0-1.6-0.7-2-0.6-0.5-3.2-3.5-5.7-6.8-2.4-3.3-5.7-7.5-7.2-9.2-1.5-1.8-3.1-3-3.5-2.5-0.3 0.4-0.3 0.1 0-0.5 0.4-0.7-0.9-3.4-3-6-2-2.7-4.1-5.3-4.6-5.8q-1-1-0.3 0.3c0.3 0.6 0.4 1.2 0.1 1.2-0.3 0-1.7-2.3-3.2-5-1.6-2.8-3.4-5-4-5-0.7 0-1.1-0.5-0.8-1 0.3-0.5-1-2.5-2.7-4.4-1.8-1.9-3.4-4-3.6-4.8-0.2-0.7-1.1-2.1-2-3-0.9-1-2-1.5-2.4-1.3-0.5 0.3-0.8-0.4-0.8-1.5q0-2-1.2-1.2-1.3 0.7-0.5-0.5c0.4-0.8-0.6-2.6-2.5-4.6-1.8-1.9-3.2-3.9-3-4.5 0.1-0.7-0.7-1.5-1.9-1.9-1.1-0.5-2.1-1.3-2.2-1.8-0.1-0.5-0.5-0.9-0.9-0.7-0.5 0.1-0.6-0.3-0.3-0.8 0.3-0.5-1.4-3.5-3.7-6.5-2.4-3-4.6-5.2-5-5-0.5 0.3-0.7 0.2-0.6-0.2 0-0.5-0.2-1.6-0.5-2.5-0.4-1.1-1.2-1.5-1.9-1-0.8 0.4-1 0.3-0.6-0.3 0.4-0.5 0.1-2-0.7-3.2-0.8-1.3-1.9-2.1-2.5-1.8-0.6 0.3-0.7-0.1-0.2-1.1 0.5-1.1 0.1-1.7-1.5-2-1.3-0.2-2.1-0.9-1.8-1.4 0.3-0.5-0.3-1.6-1.2-2.2-1-0.7-1.9-2-2.1-2.8-0.1-0.8-1.4-2.5-2.7-3.7-1.4-1.3-2.5-2.7-2.5-3.3 0-0.6-0.5-1-1.2-1-0.6 0-0.8-0.3-0.5-0.7 0.4-0.5-0.9-2.2-2.9-3.8-2.1-1.7-3.4-3.5-3-4.3 0.3-0.6 0-1.5-0.7-1.9-0.6-0.5-3.2-3.5-5.6-6.8-2.4-3.3-6-7.5-8-9.3-2-1.8-2.9-3-2.1-2.5 1.1 0.6 1.3 0.5 0.5-0.7-0.5-0.8-2.7-3.7-4.8-6.5-2.2-2.7-4.4-4.9-4.8-4.7-0.5 0.1-0.8-0.1-0.7-0.5 0.1-0.5-0.9-2.5-2.2-4.5-1.4-2.1-3.1-3.8-3.7-3.8-0.7 0-1.1-0.3-0.8-0.7 0.2-0.5-0.4-1.9-1.5-3.3-1.2-1.4-2-2.8-2-3.2 0-0.5-0.7-0.8-1.5-0.8-0.8 0-1.3-0.4-1-1 0.3-0.6-0.4-2.1-1.5-3.5-1.1-1.4-2.4-2.3-3-2-0.5 0.3-1-0.4-1-1.5q0-2-1.2-1.2-1.3 0.7-0.5-0.5c0.4-0.8-0.2-2.3-1.5-3.8-1.3-1.3-2.6-2.2-3-2-0.5 0.3-0.9-0.1-1-0.7 0-0.7-0.1-1.8-0.2-2.4-0.1-0.7-1-2.1-2.1-3.3-1.1-1.1-2.4-1.7-3-1.3-0.6 0.4-0.7 0.2-0.2-0.5 0.4-0.8-1-3.5-3.5-6.8-2.4-3-4.6-5.2-5-5-0.5 0.3-0.7 0.1-0.5-0.3 0.1-0.5-2.3-4.3-5.3-8.6-3-4.2-6.1-7.7-6.7-7.6-0.7 0-1.1-0.4-0.8-1 0.3-0.6-1.1-2.9-3-5.3-1.8-2.3-4.8-5.7-6.5-7.5-1.6-1.7-3.1-3.8-3.3-4.5-0.1-0.6-2.5-4.1-5.2-7.7-2.8-3.6-6.1-7.6-7.5-9.1-1.4-1.4-2.7-3-3-3.5-0.3-0.5-0.8-0.8-1.2-0.7-0.5 0.2-0.5-0.2 0-0.8 0.4-0.6 0.2-1.4-0.4-1.8-0.5-0.3-2.6-2.7-4.5-5.3-1.8-2.6-3.7-4.5-4.1-4.3-0.5 0.3-0.7 0.2-0.6-0.3 0.1-0.4-0.9-2.4-2.2-4.4-1.4-2.1-3.1-3.8-3.7-3.8-0.7 0-1.1-0.4-0.8-1 0.3-0.6-0.4-1.9-1.5-3-1.1-1.1-2-2.4-2-3 0-0.6-0.7-1-1.5-1-0.8 0-1.3-0.4-1-1 0.3-0.6-0.8-2.4-2.5-4-1.7-1.6-3-3.4-3-4 0-0.6-0.6-0.7-1.2-0.3q-1.3 0.8-0.5-0.5c0.4-0.7-0.2-2.2-1.5-3.7-1.3-1.3-2.6-2.2-3-2-0.5 0.3-0.9-0.1-1-0.8 0-0.6-0.1-1.7-0.2-2.3-0.1-0.7-1-2.1-2.1-3.3-1.1-1.1-2.4-1.7-3-1.3-0.6 0.4-0.7 0.2-0.2-0.6 0.4-0.7-0.6-2.9-2.5-5.5-1.8-2.3-4.5-5.7-6-7.5-1.6-1.7-2.9-3-3-2.8-0.2 0.2-0.3-0.1-0.4-0.7 0-0.7-1.1-2.7-2.5-4.5-1.3-1.8-3-3.2-3.6-3.2-0.7 0-1.1-0.4-0.8-1 0.3-0.6-0.3-1.6-1.2-2.3-1-0.6-2-1.9-2.1-2.7-0.2-0.8-1.9-3.4-3.8-5.8-1.9-2.3-3.8-4.2-4.4-4.2-0.5 0-0.8-0.4-0.5-1 0.3-0.6-0.4-1.6-1.5-2.3-1.1-0.6-1.8-1.4-1.5-1.7 0.3-0.3-0.9-2.1-2.6-4-1.7-1.9-3.2-3.7-3.3-4 0-0.3-0.4-0.4-0.8-0.3-0.5 0.2-0.8-0.4-0.8-1.2 0-0.8-1-2.2-2.2-3-1.3-0.8-2.5-1.5-2.8-1.4-0.3 0-1.1 0.2-1.7 0.5zm1.1 352.4c0.3 0.5-0.4 1.3-1.6 1.6-1.3 0.3-1.7 0.7-1 1 0.6 0.2 1 0.9 0.7 1.4-0.3 0.5-0.2 1.6 0.2 2.3 0.4 0.6 0.8 3.5 1 6.2 0.2 2.8 0.5 7.3 0.8 10 0.2 2.8 0.4 36.7 0.5 75.5l0.1 70.5c5.3 7 8.1 10.4 9.6 12 1.6 1.7 4.4 5.5 6.4 8.5 2 3 5.9 7.9 8.7 10.8 2.9 2.8 5 5.2 4.7 5.2-0.3 0 1 2.1 2.8 4.6 1.7 2.5 4.9 6.4 7 8.5 2 2.1 3.9 4.7 4.2 5.7 0.3 0.9 2 3.3 3.7 5.3 1.8 2 4.7 5.4 6.5 7.5 1.7 2.2 4.7 6.1 6.5 8.8 1.8 2.7 3.9 5.1 4.6 5.3 0.6 0.1 1.2 0.9 1.2 1.6 0.1 0.6 1.9 2.9 4 5 2.2 2 3.8 3.8 3.5 4-0.3 0.1 0.6 1.4 2 3 1.4 1.5 2.5 3 2.5 3.5 0 0.4 2.3 3.2 5.1 6.2 2.8 3 5.7 6.7 6.5 8.3 0.8 1.5 2.1 3.5 2.9 4.5 0.9 0.9 3.1 3.4 5 5.5 1.9 2 4.1 4.9 4.9 6.5 0.8 1.5 2.8 4.2 4.5 6 1.7 1.7 3.1 3.5 3.1 4 0.1 0.4 1.9 2.4 4 4.5 2.2 2 3.8 3.8 3.5 4-0.3 0.1 0.5 1.4 1.7 2.8 1.3 1.4 2.8 3.5 3.5 4.5 0.6 1.1 1.6 1.8 2.2 1.7 0.6-0.2 0.9 0.2 0.6 0.7-0.3 0.5 1.3 2.9 3.5 5.3 2.2 2.3 4 4.7 4 5.2 0 0.5 1.3 2.6 3 4.5 1.7 1.9 4.4 5 6 6.8 1.7 1.7 3.6 4.4 4.4 6 0.8 1.5 2.8 4.2 4.5 6 1.7 1.7 3.1 3.5 3.1 4 0.1 0.4 1.9 2.4 4 4.5 2.2 2 3.9 3.9 3.8 4.1-0.2 0.2 1.2 2.5 3 5 2.1 3 3.6 4.3 4.4 3.9q1.3-0.8 0.5 0.5c-0.4 0.7 0.7 2.7 2.9 5 2 2 4.2 4.8 4.9 6.2 0.7 1.4 2.8 4.3 4.6 6.4 1.9 2.2 4.1 4.7 4.9 5.6 0.8 0.9 3.3 4.2 5.5 7.3 2.2 3.2 4.3 5.8 4.8 5.7 0.4 0 0.7 0.6 0.7 1.3 0 0.6 1.8 2.8 4 4.7 2.2 1.9 3.8 3.7 3.5 4-0.2 0.3 1.7 3.2 4.3 6.6 2.6 3.3 6.4 7.7 8.5 9.7 2 2 3.5 3.7 3.2 3.7-0.3 0-0.1 0.8 0.4 1.8 0.5 0.9 2.4 3.5 4.2 5.6 1.9 2.2 4.6 5.1 6 6.5 1.4 1.4 2.8 3.5 3.2 4.6 0.4 1.1 2 3.5 3.7 5.3 1.6 1.7 3 3.5 3 4 0 0.4 1.6 2 3.6 3.7 2 1.7 4.1 4.3 4.8 6 0.7 1.7 2.7 4.5 4.5 6.3 1.7 1.7 3.1 3.5 3.1 4 0.1 0.4 1.9 2.4 4 4.5 2.2 2 3.8 3.7 3.5 3.7-0.3 0-0.1 0.8 0.4 1.8 0.5 0.9 2.4 3.5 4.2 5.6 1.9 2.2 4.6 5.1 6 6.5 1.4 1.4 2.8 3.5 3.2 4.6 0.4 1.1 2 3.5 3.7 5.3 1.6 1.7 3 3.5 3 4 0.1 0.4 2 2.4 4.3 4.4 2.3 2.1 4.2 4.3 4.3 5 0 0.7 1.4 3 3 5.1 1.6 2.1 3.2 3.8 3.7 3.7 0.4 0 0.7 0.6 0.7 1.3 0.1 0.6 1.8 2.8 3.8 4.8 2 2 3.9 4.2 4 5 0.2 0.8 2.2 3.7 4.5 6.4 2.2 2.8 5.1 5.9 6.4 7 1.2 1.1 2.2 2.5 2.2 3 0 0.5 0.8 2 1.8 3.2 1 1.2 2.7 3.4 3.8 4.8 1.1 1.4 3.5 4.1 5.3 6 1.7 1.9 3.8 4.7 4.6 6.3 0.7 1.5 2.8 4.2 4.5 6 1.7 1.7 3.1 3.5 3.1 4 0.1 0.4 1.8 2.3 3.8 4.2 2 1.9 3.7 3.8 3.7 4.2 0 0.4 2.3 3.7 5 7.3 2.8 3.6 5.6 6.8 6.3 7 0.6 0.3 1.8 2 2.6 3.8 0.8 1.7 2.8 4.8 4.5 6.7 1.8 1.9 4.5 5.1 6.2 7 1.6 1.9 4.4 5.7 6.2 8.4 1.7 2.7 3.8 5.1 4.5 5.3 0.6 0.1 1.2 0.9 1.2 1.6 0.1 0.6 1.9 2.9 4 5 2.2 2 3.8 3.8 3.5 4-0.3 0.1 0.6 1.4 2 3 1.4 1.5 2.5 3 2.5 3.5 0 0.4 1.9 2.7 4.3 5.2 2.4 2.5 4.7 5.4 5.1 6.5 0.3 1.1 2.1 3.7 3.8 5.7 1.8 2 4.8 5.4 6.6 7.5 1.8 2.1 4.7 6 6.5 8.7 1.7 2.7 3.8 5.1 4.5 5.3 0.6 0.1 1.2 0.9 1.2 1.6 0.1 0.6 1.9 2.9 4 5 2.2 2 3.8 3.8 3.5 4-0.3 0.1 0.6 1.4 2 3 1.4 1.5 2.5 3 2.5 3.5 0 0.4 2.5 3.4 5.5 6.7 3 3.3 5.5 6.5 5.5 7 0 0.5 1.3 2.6 3 4.5 1.7 1.9 4.4 5 6 6.8 1.7 1.7 3.6 4.4 4.4 6 0.8 1.5 2.8 4 4.5 5.7 1.7 1.7 3.1 3.5 3.1 4 0.1 0.5 1.9 2.7 4 4.8 2.2 2 3.8 3.8 3.5 4-0.3 0.1 0.5 1.4 1.7 2.8 1.3 1.4 2.8 3.5 3.5 4.5 0.6 1.1 1.6 1.8 2.2 1.7 0.6-0.2 0.9 0.2 0.6 0.7-0.3 0.5 1.1 2.7 3.1 4.8 2 2 4.2 4.9 5 6.5 0.8 1.5 2.1 3.5 2.9 4.5 0.9 0.9 3 3.3 4.8 5.3 1.8 1.9 5 6.1 7.2 9.3 2.2 3.1 4.3 5.7 4.8 5.6 0.4 0 0.7 0.6 0.7 1.3 0.1 0.6 1.9 2.8 4 4.7 2.2 1.9 3.7 3.7 3.5 4-0.3 0.3 0.5 1.7 1.7 3.1 1.3 1.4 2.8 3.5 3.5 4.5 0.6 1.1 1.6 1.8 2.2 1.7 0.6-0.2 0.9 0.2 0.6 0.7-0.3 0.5 1.1 2.7 3.1 4.8 2 2 4.2 4.9 5 6.5 0.8 1.5 2.2 3.5 3.2 4.6 0.9 1 3.1 3.6 4.9 5.7 1.7 2.2 4.7 6.1 6.5 8.8 1.8 2.7 3.9 5.1 4.6 5.3 0.6 0.1 1.2 0.9 1.2 1.6 0.1 0.6 1.8 2.8 3.8 4.8 2 2 3.9 4.2 4 5 0.2 0.8 2.2 3.7 4.5 6.4 2.2 2.8 5.1 5.9 6.2 7 1.2 1.1 2.5 2.9 2.9 4 0.3 1.1 2.1 3.7 3.8 5.7 1.8 2 4.8 5.4 6.6 7.5 1.7 2.1 4.4 5.6 6 7.9 1.5 2.3 4.5 6.4 6.7 9.2 2.2 2.8 4.7 5.3 5.5 5.5 0.8 0.2 4.4-0.7 8-2 3.6-1.3 7.8-3 9.5-3.7 1.7-0.8 8-3.2 14-5.5 6.1-2.2 11.2-4.1 11.5-4.1 0.3 0 2.3-0.7 4.5-1.6 2.2-1 6.7-2.7 10-3.9 3.3-1.2 9.4-3.4 13.5-4.9 4.1-1.5 8.8-3.4 10.5-4.1 1.7-0.7 5.3-2 8-2.9 2.8-0.8 6-2.5 7.3-3.6 1.2-1.1 2.2-2.7 2.2-3.5 0-0.8-0.3-1.4-0.7-1.4-0.5 0.1-1.4 0.1-2 0-0.7 0-1.3-0.8-1.3-1.6 0-0.8-0.9-2-2-2.5-1.1-0.5-2-1.5-2-2 0-0.5-1.5-2.9-3.2-5.2-1.8-2.3-3.9-4.9-4.7-5.8-0.8-0.8-2.9-3.7-4.7-6.5-1.7-2.7-4.6-6.6-6.4-8.5-1.7-1.9-4.8-6-6.9-9-2.1-3-5.2-7-7-8.7-1.7-1.8-3.1-3.5-3.1-3.8 0-0.3-2.1-3.3-4.7-6.6-2.7-3.4-6.3-7.7-8-9.5-1.8-1.9-3.3-3.6-3.3-3.9 0-0.3-1.1-1.4-2.5-2.5-1.4-1.1-2.4-2.6-2.2-3.2 0.1-0.7-0.4-1.2-1-1-0.7 0.1-1.1-0.3-0.8-0.8 0.3-0.5-0.3-1.8-1.2-2.8-1-1-4-4.7-6.7-8.3-2.8-3.5-5.5-7.1-6.2-7.9-0.7-0.8-2.6-3-4.3-4.7-1.7-1.8-3.1-3.6-3.1-4 0-0.5-1.2-2.3-2.7-4-1.6-1.8-3.1-3.1-3.5-2.8-0.5 0.3-0.9-0.1-1-0.7 0-0.7-0.1-1.9-0.2-2.7-0.1-0.8-0.9-1.7-1.9-2-1-0.3-1.9-1.1-2-1.6-0.1-0.5-0.5-0.9-0.9-0.7-0.5 0.1-0.5-0.3 0-0.9 0.4-0.6 0.2-1.4-0.3-1.8-0.6-0.3-2.7-3-4.8-5.8-2.4-3.5-4.1-5-4.9-4.6q-1.3 0.8-0.5-0.5c0.4-0.7-0.5-2.4-2.3-4.2-1.7-1.7-3-3.5-3-4 0-0.5-0.6-0.7-1.2-0.2q-1.3 0.7-0.5-0.5c0.4-0.8-0.6-2.6-2.5-4.6-1.8-1.9-3.2-3.9-3-4.5 0.1-0.7-0.7-1.5-1.9-1.9-1.1-0.5-2.1-1.3-2.2-1.8-0.1-0.5-0.5-0.9-0.9-0.7-0.5 0.1-0.6-0.3-0.3-0.8 0.3-0.5-1.4-3.5-3.7-6.5-2.4-3-4.9-5.5-5.5-5.5-0.7 0-1.1-0.5-0.8-1 0.3-0.5-0.8-2.3-2.5-4-1.7-1.7-3-3.2-3-3.5 0-0.3-1.6-2.6-3.6-5.2-1.9-2.7-4.5-6-5.7-7.5-1.2-1.5-2.6-2.4-3.1-2-0.5 0.4-0.6 0.2-0.3-0.3 0.3-0.5 0-2-0.8-3.2-0.8-1.3-1.9-2.1-2.5-1.8-0.5 0.3-0.7-0.1-0.4-0.7 0.3-0.7-1-2.7-2.8-4.4-1.8-1.7-3.5-3.7-3.7-4.5-0.1-0.8-2.2-3.6-4.5-6.4-2.4-2.7-5.2-6.5-6.4-8.2-1.3-2-2.7-3-3.4-2.6-0.7 0.3-1 0.2-0.6-0.3 0.4-0.5-0.5-2.5-2-4.4-1.5-1.9-3.1-4.1-3.7-4.8-0.5-0.8-2.5-2.9-4.2-4.8-1.8-1.9-3.4-4-3.6-4.6-0.1-0.7-1.1-2.3-2.2-3.5-1.1-1.2-2.4-1.9-3-1.5-0.6 0.4-0.7 0.2-0.2-0.5 0.4-0.8-0.9-3.4-3.4-6.5-2.3-2.9-4.6-5.2-5-5-0.5 0.1-0.8-0.2-0.6-0.6 0.1-0.5-1.4-3-3.3-5.6-1.9-2.7-5.2-6.6-7.2-8.7-2.1-2.2-3.6-4.2-3.3-4.6 0.2-0.5-0.6-1.8-1.8-3.1-1.2-1.2-2.6-1.9-3.1-1.5-0.6 0.5-0.6 0.3 0-0.6 0.6-0.8 0.5-1.6-0.1-2-0.6-0.3-2.3-2.4-3.9-4.6-1.6-2.2-3.5-4.7-4.2-5.5-0.7-0.8-2.6-3-4.3-4.7-1.7-1.8-3.1-3.8-3.1-4.3 0-0.5-0.5-0.7-1.2-0.2q-1.2 0.7-0.6-0.8c0.3-0.9-0.8-2.8-2.6-4.6-1.7-1.7-3-3.6-2.8-4.2 0.1-0.7-0.7-1.5-1.7-1.9-1.1-0.5-2.1-1.3-2.1-1.8-0.1-0.5-0.6-0.9-1.1-0.7-0.5 0.1-0.6-0.3-0.1-0.9 0.4-0.6 0.2-1.4-0.3-1.8-0.6-0.3-2.7-3-4.8-5.8-2.4-3.5-4.1-5-4.9-4.5q-1.3 0.7-0.5-0.5c0.4-0.8-0.5-2.5-2.3-4.3-1.7-1.7-3-3.5-3-4 0-0.5-0.6-0.7-1.2-0.3q-1.3 0.8-0.5-0.5c0.4-0.7-0.6-2.5-2.5-4.5-1.8-1.9-3.2-3.9-3-4.5 0.1-0.7-0.7-1.5-1.7-1.9-1.1-0.5-2.1-1.3-2.1-1.8-0.1-0.5-0.6-0.9-1.1-0.7-0.5 0.1-0.7-0.3-0.4-0.8 0.3-0.5-0.7-2.6-2.2-4.5-1.6-1.9-3.4-3.5-4-3.5-0.7 0-1.1-0.5-0.8-1 0.3-0.5-0.3-1.6-1.2-2.2-1-0.7-1.9-2-2.1-2.8-0.1-0.8-1.4-2.5-2.7-3.7-1.4-1.3-2.5-2.5-2.5-2.8 0-0.3-1.6-2.6-3.6-5.2-1.9-2.7-4.5-6-5.7-7.5-1.2-1.5-2.6-2.4-3.1-2-0.5 0.4-0.6 0.2-0.3-0.3 0.3-0.5 0-2-0.8-3.2-0.8-1.3-1.9-2.1-2.5-1.8-0.6 0.3-0.7-0.1-0.2-1.1 0.5-1.1 0.1-1.7-1.5-2-1.3-0.2-2.1-0.9-1.8-1.4 0.3-0.5-0.3-1.6-1.2-2.2-1-0.7-2-2-2.2-2.8-0.1-0.8-2.2-3.7-4.5-6.5-2.4-2.7-5.2-6.5-6.4-8.2-1.3-2-2.7-3-3.4-2.6-0.7 0.3-1 0.2-0.6-0.3 0.4-0.5-0.5-2.5-2-4.4-1.5-1.9-3.1-4.1-3.7-4.8-0.5-0.8-2.5-2.9-4.2-4.8-1.8-1.9-3.4-4-3.6-4.6-0.1-0.7-1.1-2.3-2.2-3.5-1.1-1.2-2.4-1.9-3-1.5-0.6 0.4-0.7 0.2-0.2-0.5 0.4-0.8-1-3.5-3.5-6.8-2.4-3-4.6-5.2-5-5-0.5 0.3-0.7 0.1-0.5-0.3 0.1-0.5-1.4-3-3.3-5.6-1.9-2.7-5.2-6.6-7.2-8.7-2.1-2.2-3.6-4.4-3.3-4.9 0.3-0.5-0.4-1.3-1.4-1.7-1.1-0.5-2.1-1.3-2.3-1.8-0.2-0.5-0.6-0.9-1-0.7-0.5 0.1-0.5-0.3 0-0.9 0.4-0.6 0.2-1.4-0.3-1.8-0.6-0.3-2.3-2.4-3.9-4.6-1.6-2.2-3.5-4.7-4.2-5.5-0.7-0.8-2.6-3-4.3-4.7-1.7-1.8-3.1-3.8-3.1-4.3 0-0.5-0.5-0.7-1.2-0.2q-1.2 0.7-0.6-0.8c0.3-0.9-0.8-2.8-2.6-4.6-1.7-1.7-3-3.6-2.8-4.2 0.1-0.7-0.7-1.5-1.7-1.9-1.1-0.5-2.1-1.2-2.3-1.8-0.2-0.5-0.6-0.9-1-0.7-0.5 0.1-0.6-0.3-0.3-0.8 0.3-0.5-1.6-3.7-4.2-7-2.7-3.3-5.2-5.6-5.8-5.2-0.6 0.4-0.7 0.2-0.2-0.5 0.4-0.8-0.5-2.5-2.3-4.3-1.7-1.6-3-3.5-3-4 0-0.5-0.6-0.7-1.2-0.2q-1.3 0.7-0.5-0.5c0.4-0.8-0.6-2.6-2.8-4.8-1.9-1.9-3.2-3.7-2.7-4 0.4-0.3-0.5-1.6-2-3-1.6-1.4-2.9-2.3-3-2.1-0.2 0.2-0.3-0.1-0.4-0.7 0-0.7-1.1-2.7-2.5-4.5-1.3-1.8-3-3.2-3.6-3.2-0.7 0-1.1-0.5-0.8-1 0.3-0.5-0.3-1.6-1.2-2.2-1-0.7-1.9-2-2.1-2.8-0.1-0.8-1.4-2.5-2.7-3.7-1.4-1.3-2.5-2.5-2.5-2.8 0-0.3-2.1-3.2-4.7-6.6-2.7-3.3-6.1-7.7-7.6-9.7-1.6-2-3.3-3.6-3.8-3.4-0.5 0.1-0.6-0.4-0.3-1 0.3-0.7-1-2.6-3-4.3-2-1.6-3.7-3.7-3.9-4.6-0.1-0.8-2-3.7-4.3-6.5-2.2-2.7-5-6.4-6.2-8.1-1.3-2-2.7-3-3.4-2.6-0.7 0.3-1 0.2-0.6-0.3 0.4-0.5-0.5-2.5-2-4.4-1.5-1.9-3.1-4.1-3.7-4.8-0.5-0.8-2.5-2.9-4.2-4.8-1.8-1.9-3.4-4.1-3.5-4.9-0.2-0.9-0.8-1.9-1.3-2.3-0.6-0.4-3.5-4-6.5-7.9-3-4-5.8-7.1-6.2-6.8-0.5 0.3-0.7 0.1-0.5-0.3 0.1-0.5-1.4-3-3.3-5.6-1.9-2.7-5.1-6.4-7-8.4-1.9-1.9-3.5-4-3.5-4.6 0-0.6-0.9-2.1-2-3.3-1.1-1.2-2.4-1.9-3-1.5q-1 0.7 0-0.7 1-1.3-0.1-2c-0.5-0.3-2.6-2.8-4.5-5.4-1.8-2.6-4-4.7-4.6-4.7-0.7 0-1.1-0.5-0.8-1 0.3-0.5-0.8-2.4-2.5-4-1.7-1.6-3-3.5-3-4 0-0.5-0.5-0.7-1.2-0.2q-1.2 0.7-0.7-0.8c0.3-0.8-0.4-2.5-1.5-3.7-1.2-1.2-2.4-2-2.8-1.8-0.5 0.3-0.9-0.1-1-0.7 0-0.7-0.1-1.9-0.2-2.7-0.1-0.8-0.9-1.7-1.9-2-1-0.3-1.9-1.1-2-1.6-0.1-0.5-0.5-0.9-0.9-0.7-0.5 0.1-0.5-0.3 0-0.9 0.4-0.6 0.2-1.4-0.3-1.8-0.6-0.3-2.7-3-4.8-5.8-2.4-3.5-4.1-5-4.9-4.5q-1.3 0.7-0.5-0.5c0.4-0.8-0.5-2.5-2.3-4.3-1.7-1.6-3-3.5-3-4 0-0.5-0.6-0.7-1.2-0.2q-1.3 0.7-0.5-0.5c0.4-0.8-0.6-2.6-2.5-4.6-1.8-1.8-3.3-3.8-3.3-4.5 0-0.7-0.3-1.1-0.6-0.9-0.4 0.1-1.6-0.7-2.8-1.8-1.1-1.1-1.8-2.3-1.6-2.7 0.3-0.5-0.7-2.4-2.2-4.3-1.6-1.9-3.4-3.5-4-3.5-0.7 0-1.1-0.5-0.8-1 0.3-0.5-0.3-1.6-1.2-2.2-1-0.7-1.9-2-2.1-2.8-0.1-0.8-1.4-2.5-2.7-3.7-1.4-1.3-2.5-2.5-2.5-2.8 0-0.3-1.6-2.6-3.6-5.2-1.9-2.7-4.5-6-5.7-7.5-1.2-1.5-2.4-2.6-2.7-2.3-0.3 0.2-0.5-0.2-0.6-0.8 0-0.7-1.1-2.7-2.5-4.5-1.3-1.8-3-3.2-3.6-3.2-0.7 0-1.1-0.5-0.8-1 0.3-0.5-0.3-1.6-1.2-2.2-1-0.7-1.9-1.9-2-2.5-0.2-0.7-2.4-3.9-4.9-7-2.5-3.2-6.2-7.8-8.3-10.3-2.1-2.5-4.5-5.7-5.4-7.2-1.1-1.8-2.2-2.5-2.9-2-0.9 0.5-1 0.3-0.4-0.8 0.6-1.1-0.1-2.3-2.8-4.5-2-1.6-3.7-3.8-3.9-4.8-0.1-0.9-0.7-2.1-1.2-2.5-0.6-0.4-3.5-4-6.5-7.9-3-4-5.9-7-6.5-6.6-0.5 0.3-0.7 0.2-0.3-0.3 0.4-0.5-0.2-2-1.2-3.4-1.1-1.4-2.8-3.5-3.8-4.8-0.9-1.3-3.4-4.1-5.4-6.2-2.1-2.2-3.6-4.5-3.3-5 0.3-0.5-0.4-1.2-1.5-1.5-1.1-0.3-1.8-1-1.5-1.5 0.3-0.5-0.2-1-1-1-0.8 0-1.4-0.6-1.2-1.2 0.1-0.7-2.5-5-5.8-9.5-3.3-4.5-6.6-8.2-7.2-8.2-0.7-0.1-2-1.2-2.8-2.6-0.8-1.4-2-2.5-2.6-2.5-0.6 0-0.8 0.5-0.5 1zm-2 342.2c-1 1.2-1.3 1.8-0.6 1.5 0.7-0.4 1.2 0 1.2 1.1 0 0.9 0.4 5.5 0.8 10.2 0.5 4.7 1 39.5 1.1 77.5l0.1 69c4.4 6.2 6 9 6.3 10.3 0.4 1.2 1.2 2.2 1.7 2.2 0.6 0 1.5 1.1 2 2.5 0.6 1.4 1.5 2.5 2 2.5 0.6 0 3.3 3.3 6.1 7.3 2.9 3.9 5.8 7.9 6.5 8.7 0.8 0.8 3.3 3.5 5.6 6 2.4 2.5 4.8 5.6 5.5 7 0.6 1.4 2.4 4 4 5.8 1.5 1.9 4.6 5.3 6.8 7.5 2.2 2.3 4.5 5.2 5 6.4 0.6 1.2 2.3 3.8 4 5.8 1.7 1.9 4.8 5.5 7 7.8 2.2 2.3 4.5 5.3 5.2 6.7 0.6 1.4 2.4 4 4 5.8 1.5 1.9 4.6 5.3 6.8 7.6 2.2 2.3 4.5 5.2 5.2 6.6 0.6 1.4 2.4 4 4 5.8 1.5 1.9 4.6 5.3 6.8 7.5 2.2 2.3 4.5 5.2 5 6.4 0.6 1.2 2.3 3.8 4 5.8 1.7 1.9 4.8 5.5 7 7.8 2.2 2.3 4.5 5.3 5.2 6.7 0.6 1.4 2.4 4 4 5.8 1.5 1.9 4.7 5.4 7.1 7.8 2.3 2.4 4.2 4.7 4.2 5.2 0 0.4 0.7 1.7 1.7 2.9 1 1.2 2.7 3.4 3.8 4.8 1.1 1.4 3.8 4.5 6 6.8 2.2 2.3 4.5 5.2 5 6.4 0.6 1.2 2.3 3.8 4 5.8 1.7 1.9 4.8 5.5 7 7.8 2.2 2.3 4.5 5.3 5.2 6.7 0.6 1.4 2.4 4 4 5.8 1.5 1.9 4.6 5.3 6.8 7.5 2.2 2.3 4.5 5.2 5 6.4 0.6 1.2 2.3 3.8 4 5.8 1.7 1.9 4.8 5.5 7 7.8 2.2 2.3 4.5 5.2 5 6.4 0.6 1.2 2.3 3.8 4 5.8 1.7 1.9 4.8 5.5 7 7.8 2.2 2.3 4.5 5.2 5 6.4 0.6 1.2 2.3 3.8 4 5.8 1.7 1.9 4.8 5.5 7 7.8 2.2 2.3 4.5 5.2 5 6.4 0.6 1.2 2.3 3.8 4 5.8 1.7 1.9 4.8 5.5 7 7.8 2.2 2.3 4.5 5.2 5 6.4 0.6 1.2 2.3 3.8 4 5.8 1.7 1.9 4.8 5.5 7 7.8 2.2 2.3 4.5 5.2 5 6.4 0.6 1.2 2.3 3.8 4 5.8 1.7 1.9 4.9 5.6 7.3 8 2.3 2.5 4.2 4.8 4.2 5.3 0 0.4 0.7 1.7 1.7 2.9 1 1.2 2.7 3.4 3.8 4.8 1.1 1.4 3.8 4.5 6 6.8 2.2 2.3 4.5 5.2 5 6.4 0.6 1.2 2.3 3.8 4 5.8 1.7 1.9 4.8 5.5 7.1 7.8 2.2 2.3 4.3 5.1 4.7 6.2 0.4 1.1 2.2 3.7 3.9 5.7 1.8 2 4.8 5.4 6.6 7.5 1.7 2.1 4.6 5.7 6.2 8.1 1.7 2.3 3.7 5 4.5 6 0.9 0.9 3.5 3.7 5.8 6.2 2.4 2.5 4.6 5.4 5 6.5 0.3 1.1 2 3.3 3.6 5 1.7 1.7 3.1 3.3 3.1 3.8 0 0.4 2.3 3.5 5.1 7 2.9 3.4 5.5 6.4 5.8 6.7 0.3 0.3 1.8 2.3 3.3 4.5 1.5 2.2 3.9 5.3 5.4 7 1.4 1.7 5.6 6.8 9.3 11.5 3.6 4.7 7.6 9.6 8.8 11 1.1 1.4 7 8.6 13 16.1 5.9 7.5 11.5 14.7 12.3 15.9 0.8 1.3 2.5 3.6 3.8 5.1 1.2 1.6 2.2 3.4 2.2 3.9 0 0.5 0.7 1.2 1.5 1.5 0.8 0.3 2.1-0.1 2.8-0.7 0.6-0.7 2.5-1.4 4.2-1.6 1.7-0.2 7.5-2.1 13-4.3 5.5-2.2 10.3-3.9 10.8-3.9 0.4 0 2.6-0.9 5-1.9 2.3-1 6.2-2.6 8.7-3.4 2.5-0.9 9.2-3.4 15-5.7 5.8-2.3 13-4.9 16-6 3-1 8.7-3 12.5-4.5 3.8-1.5 7.2-3 7.5-3.4 0.3-0.4 1.3-1.1 2.3-1.4 0.9-0.4 1.7-1 1.7-1.4 0.1-0.5-2.2-3.7-5.1-7.3-2.8-3.6-5.4-6.7-5.7-7-0.4-0.3-1.2-1.4-1.9-2.5-0.6-1.1-1.6-1.9-2.2-1.7-0.6 0.1-0.9-0.3-0.6-0.8 0.3-0.5-0.7-2.2-2.1-3.7-1.5-1.6-3-2.7-3.5-2.5-0.5 0.1-0.7-0.3-0.4-0.8 0.3-0.5-1.6-3.7-4.2-7-2.7-3.3-5.2-5.6-5.8-5.2-0.6 0.4-0.7 0.2-0.2-0.5 0.4-0.8-1.2-3.5-4.1-7-2.7-3.2-5.8-7.3-7-9-1.4-2.1-2.7-3-3.4-2.5-0.8 0.4-1 0.3-0.6-0.3 0.4-0.5-0.8-2.8-2.8-5-1.9-2.2-3.5-4.3-3.4-4.7 0-0.5-0.5-0.5-1.2 0q-1.2 0.7-0.7-0.8c0.3-0.8 0.1-2-0.5-2.6-0.6-0.6-3.6-4.1-6.6-7.8-3-3.6-5.8-6.6-6.2-6.6-0.5 0-0.8-0.7-0.8-1.5 0-0.9-0.5-1.2-1.2-0.7-0.9 0.5-1 0.2-0.5-1 0.4-1 0.3-1.9-0.1-2-0.4-0.2-2-2-3.5-4-1.7-2.4-3.1-3.5-3.9-3-0.8 0.4-1 0.3-0.6-0.3 0.4-0.5-0.8-2.8-2.8-5-1.9-2.2-3.5-4.3-3.4-4.7 0-0.5-0.6-0.5-1.2 0-0.9 0.5-1 0.2-0.5-1 0.4-1 0.4-1.8 0-1.8-0.5 0-1.9-1.7-3.3-3.7-1.4-2-3.2-4.4-4.2-5.2-0.9-0.9-2.9-3.2-4.5-5.3-1.5-2-3.7-4.8-4.8-6.2-1.1-1.5-2.6-2.7-3.2-2.6-0.7 0-1.4-0.6-1.5-1.2 0-0.7-0.1-1.9-0.2-2.7-0.1-0.8-0.9-1.7-1.9-2-1-0.3-1.9-1.1-2-1.6-0.1-0.5-0.5-0.9-0.9-0.7-0.5 0.1-0.6-0.1-0.3-0.5 0.2-0.5-0.2-1.8-1-3-0.8-1.3-1.9-2.1-2.5-1.8-0.5 0.3-0.7-0.1-0.4-0.7 0.3-0.7-1-2.6-3-4.3-2-1.7-3.7-3.7-3.9-4.5-0.1-0.8-1.1-2.5-2.2-3.7-1.1-1.2-2.4-1.9-3-1.5q-1 0.7 0-0.7 1-1.3 0-2c-0.6-0.3-2.6-2.7-4.5-5.3-1.9-2.6-4.1-4.8-4.7-4.8-0.7 0-1.1-0.5-0.8-1 0.3-0.5-0.3-1.8-1.2-2.8-1-1-4.5-5.2-7.8-9.5-3.4-4.3-6.4-7.3-7-6.9-0.6 0.4-0.7 0.2-0.2-0.5 0.4-0.8-1.2-3.5-4.1-7-2.7-3.2-5.8-7.3-7-9-1.4-2.1-2.7-3-3.4-2.5q-1.3 0.7-0.5-0.5c0.4-0.8-0.7-2.8-2.8-5-2-2.1-3.6-4.1-3.5-4.5 0-0.5-0.6-0.5-1.2-0.1-1 0.6-1 0.4-0.3-0.6q1-1.3-0.1-2c-0.5-0.3-2.2-2.3-3.7-4.3-1.5-2.1-3.1-3.6-3.7-3.3-0.5 0.3-0.9 0.1-0.7-0.3 0.1-0.5-1.4-3-3.3-5.6-1.9-2.6-5.1-6.5-7-8.7-1.9-2.1-3.3-4.1-3-4.4 0.3-0.2-0.7-1.6-2.2-3-1.6-1.4-3-2.3-3.3-2-0.3 0.3-0.3 0.2 0-0.2 0.2-0.5 0-1.6-0.5-2.5-0.6-1-1.7-1.8-2.5-1.8-0.8 0-1.3-0.5-1-1 0.3-0.5-1.2-2.6-3.2-4.7-2.1-2-3.8-4.1-3.8-4.7 0-0.6-0.9-2.1-2-3.3-1.1-1.2-2.4-1.9-3-1.5-0.6 0.4-0.7 0.2-0.2-0.5 0.4-0.8-0.4-2.8-2-4.8-1.6-1.9-3.4-3.5-4-3.5-0.7 0-1.2-0.4-1-0.9 0.1-0.5-0.6-1.6-1.6-2.3-1-0.7-1.9-2-2-2.8-0.2-0.8-1.1-2.5-2.2-3.7-1.1-1.2-2.4-1.9-3-1.5q-1 0.7 0-0.7 1-1.3 0-2c-0.6-0.3-2.7-3-4.8-5.8-2.4-3.5-4.1-5-4.9-4.5q-1.3 0.7-0.5-0.5c0.4-0.8-1.2-3.5-4.1-7-2.7-3.2-5.8-7.3-7-9-1.4-2.1-2.7-3-3.4-2.5q-1.3 0.7-0.5-0.5c0.4-0.8-0.7-2.8-2.8-5-2-2.1-3.6-4.1-3.5-4.5 0-0.5-0.4-0.6-1-0.3-0.5 0.3-0.8-0.2-0.5-1 0.3-0.8 0.2-1.5-0.2-1.5-0.5 0.1-2-1.7-3.5-4-1.8-2.6-3.2-3.7-4-3.2-0.8 0.4-1 0.3-0.6-0.3 0.4-0.5-0.8-2.8-2.8-5-1.9-2.2-3.5-4.3-3.4-4.7 0-0.5-0.5-0.8-1.2-0.8-0.6 0-0.8-0.3-0.5-0.7 0.4-0.5-0.9-2.3-2.8-4-1.9-1.8-3.2-3.5-2.7-3.8 0.4-0.3-0.5-1.6-2-3-1.6-1.4-3.1-2.2-3.5-1.7-0.3 0.4-0.3 0.1 0-0.5 0.4-0.7-0.5-2.8-2-4.5-1.5-1.8-4.1-4.6-5.8-6.1-1.6-1.6-3-3.4-3-4 0-0.7-0.9-2.2-2-3.4-1.1-1.2-2.3-2-2.7-1.8-0.5 0.3-0.6-0.1-0.3-0.7 0.4-0.7-2-4-5.1-7.3-3.1-3.3-5.7-6.5-5.8-7-0.1-0.5-1-2-2.1-3.2-1.1-1.2-2.4-1.9-3-1.5q-1 0.7 0-0.7 1-1.3 0-2c-0.6-0.3-2.7-3-4.8-5.8-2.4-3.5-4.1-5-4.9-4.5q-1.3 0.7-0.5-0.5c0.4-0.8-1.2-3.5-4.1-7-2.7-3.2-5.8-7.3-7-9-1.4-2.1-2.7-3-3.4-2.5q-1.3 0.7-0.5-0.5c0.4-0.8-0.7-2.8-2.8-5-2-2.1-3.6-4.1-3.5-4.5 0-0.5-0.6-0.5-1.2 0q-1.3 0.7-0.5-0.5c0.4-0.8-0.1-2.1-1-3.2-1-1-4.5-5.3-7.8-9.5-3.3-4.2-7.6-9.4-9.5-11.6-1.9-2.2-3.3-4.2-3-4.5 0.3-0.2-0.6-1.5-2-2.8-1.4-1.2-3.6-3.7-5-5.6-1.4-1.9-4.1-5-6-6.9-1.9-1.9-3.5-4-3.5-4.6 0-0.6-0.9-2.1-2-3.3-1.1-1.2-2.3-2-2.7-1.8-0.5 0.3-0.6-0.1-0.3-0.7 0.4-0.7-2-4-5.1-7.3-3.1-3.3-5.7-6.5-5.8-7-0.1-0.5-1-2-2.1-3.2-1.1-1.2-2.4-1.9-3-1.5q-1 0.7 0-0.7 1-1.3 0-2c-0.6-0.3-2.7-3-4.8-5.8-2.4-3.5-4.1-5-4.9-4.5-0.8 0.4-1 0.3-0.6-0.3 0.4-0.5-2.5-5-6.4-10-3.9-5-7.5-8.9-8-8.7-0.4 0.1-0.6-0.3-0.3-0.8 0.3-0.5-1.1-2.7-3-4.7-2-2.1-3.6-3.9-3.5-4 0-0.2-1.8-2.8-4-5.8-2.6-3.6-4.4-5.2-5.2-4.7-0.8 0.4-1 0.3-0.6-0.3 0.4-0.5-0.8-2.8-2.8-5-1.9-2.2-3.5-4.3-3.4-4.7 0-0.5-0.5-0.5-1.2 0q-1.2 0.7-0.6-0.8c0.3-0.9-0.8-2.8-2.8-4.7-1.9-1.8-3.1-3.6-2.6-3.9 0.4-0.3-0.2-1.3-1.4-2.2-1.1-0.9-3.6-3.7-5.5-6.2-1.9-2.5-4.1-5.3-4.9-6.3-0.8-0.9-2.1-1.7-2.7-1.7-0.7 0-1.4-0.6-1.5-1.2 0-0.7-0.2-1.8-0.2-2.3-0.1-0.5-1-2-2.1-3.2-1.1-1.2-2.4-1.9-3-1.5-0.6 0.4-0.7 0.2-0.2-0.5 0.4-0.8-1.3-3.9-4.5-8-2.9-3.8-7-8.5-9.3-10.5-2.2-2.1-4.3-3.8-4.6-3.8-0.3 0-1.5 1-2.5 2.2zm-0.3 329.1c-0.6 0.6-0.8 1.6-0.3 2 0.4 0.5 0.9 1.6 1.1 2.5 0.2 1 0.7 5.7 1.1 10.7 0.4 5 0.8 38.1 0.9 73.8l0.1 64.7c5.4 8.1 7.6 11.3 8.5 12.3 0.8 0.9 1.5 2 1.5 2.5 0 0.4 2.8 3.6 6.2 7.2 3.4 3.6 6.2 7 6.3 7.5 0.1 0.5 1.5 2.7 3.1 4.8 1.6 2.1 3.2 3.8 3.7 3.7 0.4 0 0.7 0.6 0.7 1.3 0.1 0.6 2 3 4.3 5.2 2.3 2.2 4.7 5 5.2 6.2 0.6 1.2 2.3 3.8 4 5.8 1.7 2 5.5 6.1 8.6 9.3 3.1 3.1 5.6 6 5.5 6.3 0 0.4 1.4 2.8 3.2 5.3 1.7 2.5 3.7 4.4 4.2 4.1 0.6-0.3 1 0.3 1 1.3 0.1 0.9 1.8 3.3 3.9 5.2 2.1 1.9 4.1 4.4 4.4 5.5 0.4 1.1 2.3 3.8 4.2 6 2 2.2 3.6 4.2 3.6 4.5 0 0.3 1.9 2.3 4.2 4.5 2.3 2.2 4.7 5 5.2 6.2 0.6 1.2 3 4.5 5.5 7.4 2.5 2.9 6.4 7.2 8.8 9.6 2.3 2.4 4 4.4 3.7 4.6-0.3 0.1 0.5 1.4 1.7 2.8 1.3 1.4 2.8 3.5 3.5 4.5 0.6 1.1 1.6 1.8 2.2 1.7 0.6-0.2 1.1 0.5 1.1 1.5 0.1 0.9 2 3.4 4.3 5.4 2.3 2.1 4.2 4.3 4.3 5 0 0.7 1.4 3 3 5 1.6 2.1 3.2 3.8 3.7 3.8 0.4 0 0.7 0.6 0.7 1.3 0.1 0.6 2 3 4.4 5.2 2.3 2.2 4.6 4.9 4.9 6 0.4 1.1 2.2 3.6 3.9 5.6 1.8 2 5.6 6.3 8.4 9.5 2.8 3.3 5.5 6.8 6.1 7.9 0.6 1.1 2.6 3.8 4.4 5.9 1.9 2.2 5.3 5.9 7.7 8.3 2.3 2.3 4.2 4.6 4.2 5 0 0.5 1.4 2.7 3 5 1.7 2.4 3.5 4.3 4 4.3 0.6 0 1 0.5 1 1 0 0.5 1.8 2.8 4 5 2.2 2.2 4 4.5 4 5 0 0.5 1 2.1 2.3 3.5 1.2 1.3 3.1 3.6 4.2 5 1.1 1.4 4.1 4.8 6.8 7.6 2.6 2.7 4.5 4.9 4.2 4.9-0.3 0 0.8 1.9 2.4 4.3 1.6 2.3 3.9 5.2 5 6.5 1.4 1.5 3 2.1 4.9 1.9 1.5-0.2 4.5-1.1 6.7-2 2.2-1 4.2-1.7 4.5-1.7 0.3 0 2.3-0.7 4.5-1.6 2.2-1 6.7-2.7 10-3.9 3.3-1.2 9.2-3.4 13-4.8 3.8-1.4 8.3-3.1 10-3.8 1.7-0.6 5.7-2.2 9-3.4 3.3-1.2 10.1-3.7 15-5.5 5-1.8 9.6-3.8 10.4-4.4 0.8-0.6 2.1-1.1 3-1.2 0.9 0 2.9-0.7 4.6-1.5 1.8-0.9 3.1-2.3 3.3-3.7 0.1-1.4-1-3.4-3.3-5.7-1.9-1.9-3.5-4-3.5-4.5 0-0.5-0.6-1.3-1.3-1.8-0.7-0.4-2.5-2.6-4-5-1.5-2.3-4.1-5.7-5.8-7.5-1.7-1.7-4.8-5.7-6.9-8.7-2.1-3-5.5-7.3-7.5-9.5-2.1-2.2-6.3-7.4-9.3-11.5-3.1-4.1-6.5-8.4-7.6-9.6-1.2-1.1-3.7-4-5.6-6.3-1.9-2.3-4.8-5.7-6.5-7.5-1.7-1.8-6.6-7.9-11-13.4-4.4-5.6-8.4-9.8-9-9.4-0.6 0.4-0.7 0.2-0.2-0.6 0.4-0.7-0.4-2.3-1.9-4-1.5-1.5-3-2.6-3.5-2.5-0.5 0.2-0.7-0.2-0.4-0.7 0.3-0.5-0.3-2-1.2-3.2-1-1.3-3.5-4-5.5-6-2.1-2.1-3.9-4.4-4.1-5.1-0.1-0.6-1.1-2.2-2.2-3.4-1.1-1.2-2.3-2-2.7-1.8-0.5 0.3-0.6-0.1-0.2-0.8 0.3-0.6-2.2-4-5.5-7.5-3.4-3.4-5.9-6.7-5.6-7.2 0.3-0.5-0.4-1.3-1.6-1.8-1.1-0.4-2.1-1.2-2.2-1.7-0.1-0.5-0.5-0.9-0.9-0.8-0.5 0.2-0.7-0.1-0.5-0.7 0.1-0.5-0.7-2.1-1.8-3.5-1.1-1.5-3.6-4.4-5.5-6.5-1.9-2.2-3.4-4.2-3.2-4.5 0.1-0.3-1.8-2.5-4.3-5-2.5-2.5-4.5-5-4.5-5.5 0-0.5-0.6-0.7-1.2-0.3-0.9 0.6-1 0.3-0.5-1 0.4-0.9 0.3-1.8-0.1-2-0.4-0.1-2-1.9-3.5-4-1.5-2-3.1-3.5-3.7-3.2-0.5 0.3-0.9 0.1-0.7-0.4 0.1-0.5-3.4-5.4-7.8-11-4.4-5.5-8.4-9.7-9-9.3-0.6 0.4-0.7 0.2-0.2-0.6 0.4-0.7-0.3-2.4-1.8-4.2-1.5-1.9-3-2.7-3.7-2.2q-1.3 0.7-0.5-0.5c0.4-0.8-1-3.5-3.5-6.8-2.4-3-4.9-5.5-5.5-5.5-0.7 0-1.1-0.5-0.8-1 0.3-0.5-0.7-2.2-2.1-3.7-1.5-1.6-3-2.7-3.5-2.5-0.5 0.1-0.6-0.4-0.3-1 0.3-0.7-2.2-4.1-5.5-7.5-3.4-3.5-5.9-6.8-5.6-7.3 0.3-0.5-0.5-1.4-1.7-1.9-1.3-0.4-2.3-1.2-2.3-1.7 0-0.5-0.3-0.8-0.7-0.6-0.5 0.1-0.6-0.3-0.3-0.8 0.3-0.5-0.7-2.5-2.2-4.2-1.5-1.8-4.2-4.8-6-6.5-1.8-1.8-3.1-3.5-2.8-3.8 0.3-0.3-1.5-2.5-4-5-2.5-2.5-4.5-5-4.5-5.5 0-0.5-0.5-0.7-1.2-0.2q-1.2 0.7-0.7-0.8c0.3-0.8 0.1-2-0.5-2.6-0.6-0.6-3.6-4.1-6.6-7.8-3-3.6-5.8-6.6-6.2-6.6-0.5 0-0.8-0.5-0.8-1 0-0.5-1.8-3.5-4-6.5-2.2-3-4.4-5.3-5-5-0.5 0.3-0.9 0.1-0.7-0.4 0.1-0.5-3.4-5.4-7.8-11-4.4-5.5-8.4-9.7-9-9.3-0.6 0.4-0.7 0.2-0.2-0.6 0.4-0.7-0.4-2.3-1.9-3.9-1.5-1.6-3-2.7-3.5-2.5-0.5 0.1-0.7-0.5-0.4-1.3 0.3-0.8 0.2-1.5-0.2-1.5-0.5 0-1.6-1.3-2.5-3-1-1.6-2.5-3-3.3-3-0.8 0-1.4-0.4-1.2-0.9 0.1-0.5-0.6-1.6-1.6-2.3-1-0.7-1.9-2-2-2.9-0.1-0.9-1.1-2.6-2.2-3.8-1.1-1.1-2.3-1.8-2.7-1.6-0.5 0.3-0.6-0.1-0.2-0.7 0.3-0.7-2.2-4.1-5.5-7.5-3.4-3.5-5.9-6.8-5.6-7.3 0.3-0.5-0.1-1-0.7-1-0.7 0.1-2.2-0.9-3.3-2.1-1.1-1.3-1.3-1.8-0.5-1.3 1.1 0.7 1.3 0.6 0.6-0.6-0.5-0.8-1.6-2.3-2.5-3.2-0.9-1-1.9-1.5-2.3-1.3-0.5 0.3-0.6-0.1-0.3-0.7 0.2-0.7-0.7-2.5-2-4-1.4-1.6-2.8-2.8-3.2-2.8-0.5 0-1.4-0.9-2-2-0.7-1.1-2.1-2-3.2-2-1 0-2.4 0.6-3 1.3zm0.9 319c-1.4 1.2-2 1.7-1.3 1.2 1-0.8 1.3-0.5 1.2 1-0.1 1.1 0.2 5.2 0.5 9 0.4 3.8 0.9 8.1 1.2 9.5 0.2 1.4 0.4 39 0.5 83.5 0 44.5-0.3 82.3-0.7 84-0.4 2.1-0.2 3.2 0.7 3.7 0.8 0.3 4.1-0.2 7.4-1.2 3.3-1 7.3-2.4 9-3 1.7-0.7 5.7-2.3 9-3.5 3.3-1.2 9.4-3.4 13.5-4.9 4.1-1.5 8.8-3.3 10.5-4.1 1.7-0.7 8-3.1 14-5.4 6.1-2.2 11.2-4.1 11.5-4.1 0.3 0 2.3-0.7 4.5-1.6 2.2-1 6.7-2.7 10-3.9 3.3-1.2 10.1-3.6 15-5.4 5-1.8 9.9-3.6 11-4.1 1.1-0.5 3.1-1.2 4.5-1.5 1.4-0.3 2.2-0.9 1.8-1.3-0.5-0.4-0.2-1.3 0.5-2.1 0.9-1.2 0.9-1.3 0-0.8-0.9 0.5-1.5-0.2-1.9-2-0.4-1.6-1.6-3.7-2.8-4.8-1.1-1.1-2.4-1.9-2.8-1.8-0.5 0.2-0.7-0.3-0.5-1 0.1-0.7-1.7-3.5-4-6.2-2.3-2.8-7.2-8.6-10.8-13-3.7-4.4-8.1-9.9-9.8-12.3-1.8-2.3-3.8-4.2-4.4-4.2-0.7 0-1.1-0.5-0.8-1 0.3-0.5-0.7-2.2-2.1-3.7-1.5-1.6-3-2.7-3.5-2.5-0.5 0.1-0.7-0.4-0.4-1 0.3-0.7-1-2.9-2.8-4.8-1.8-1.9-4.5-5.2-6-7.2-1.5-2.1-3.1-3.6-3.7-3.3-0.5 0.3-0.9 0.1-0.7-0.4 0.1-0.6-2.7-4.7-6.3-9.1-3.6-4.5-7.7-9.1-9.2-10.1-1.7-1.1-2.6-2.5-2.3-3.4 0.3-0.9-0.4-1.8-1.7-2.4-1.3-0.4-2.3-1.2-2.3-1.7 0-0.5-0.3-0.8-0.7-0.6-0.5 0.1-0.6-0.3-0.3-0.8 0.3-0.5-0.5-2.1-1.7-3.4-1.3-1.3-2.8-3-3.3-3.8-0.6-0.7-2.3-3-3.8-5-1.5-2.1-3.2-3.7-3.9-3.5-0.6 0.1-1.4-0.7-1.6-1.8-0.2-1.1-1.4-3-2.5-4.2-1.2-1.2-2.6-1.9-3.2-1.5-0.6 0.4-0.7 0.2-0.2-0.5 0.4-0.8-0.4-2.8-2-4.8-1.6-1.9-3.4-3.5-4-3.5-0.7 0-1.1-0.5-0.8-1 0.3-0.5-0.3-1.6-1.2-2.3-1-0.6-1.9-1.8-2-2.5-0.2-0.6-1.4-2.4-2.8-4-1.4-1.5-2.6-3-2.5-3.5 0-0.4-0.7-0.7-1.5-0.7-0.8 0-1.9-0.9-2.5-2-0.5-1.1-1.3-2-1.7-2-0.5 0-1.9 1-3.3 2.3z"/><path class="c" d="m1394.9 246.8c-1.4 1.5-5.6 7-9.4 12.2-3.8 5.2-7.4 9.9-8 10.5-0.7 0.6-7 8.6-14 18-7.1 9.4-13.8 18.2-14.9 19.7-1.2 1.4-3.1 3.9-4.2 5.5-1.2 1.5-4.6 6-7.5 9.9-3 3.8-8.2 10.6-11.6 15-3.5 4.3-9.2 11.7-12.8 16.4-3.5 4.7-6.8 8.9-7.3 9.5-0.4 0.6-5.4 7.1-11 14.5-5.6 7.4-13 17.1-16.4 21.6-3.5 4.4-9.2 11.8-12.7 16.5-3.5 4.6-7.5 9.8-8.8 11.4-1.3 1.6-2.7 3.4-3.1 4-0.4 0.6-3.6 4.8-7.1 9.5-3.6 4.7-8.3 10.8-10.5 13.6-2.3 2.8-5.2 6.5-6.6 8.3-1.4 1.8-5.7 7.4-9.5 12.5-3.9 5.1-11.2 14.8-16.4 21.7-5.1 6.8-13.6 17.8-18.7 24.4-5.2 6.6-12.3 15.8-15.9 20.5-3.5 4.7-6.8 9-7.3 9.5-0.4 0.5-5 6.6-10.1 13.5-5.2 6.9-9.9 13-10.5 13.6-0.6 0.6-4.9 6.2-9.6 12.4-4.7 6.1-11.3 14.8-14.7 19.3-3.5 4.5-6.6 8.7-7 9.2-0.5 0.5-3.7 4.8-7.2 9.5-3.6 4.7-8.3 10.8-10.5 13.6-2.3 2.8-5.2 6.5-6.6 8.3-1.4 1.8-5.8 7.6-9.8 12.9-4.1 5.4-11.8 15.6-17.2 22.7-5.5 7.1-12.1 15.8-14.7 19.2-2.6 3.4-7.3 9.4-10.4 13.5-3.1 4-7.7 10-10.3 13.3-2.5 3.3-4.9 6.5-5.3 7-0.5 0.5-4.2 5.4-8.3 10.8-4.1 5.4-8.4 11.1-9.5 12.7-1.1 1.5-6.1 7.9-11 14.3-5 6.3-11.9 15.4-15.5 20.1-3.6 4.8-7 9.2-7.5 9.9-0.6 0.7-3.9 5-7.5 9.7-3.5 4.7-8.3 11-10.6 14-2.4 3-4.9 6.2-5.6 7-0.7 0.9-4.7 6-8.8 11.5-4.1 5.5-8.3 10.8-9.2 12-0.9 1.1-3.5 4.5-5.7 7.5-2.2 3-4.9 6.6-6 8-1 1.4-3.8 5-6.2 8.1-2.4 3.2-6.6 8.6-9.3 12-2.7 3.5-7.9 10.2-11.5 14.9-3.5 4.7-7.5 9.9-8.8 11.5-1.3 1.6-2.7 3.5-3.1 4-0.4 0.5-3.6 4.8-7.1 9.5-3.6 4.7-8.4 11-10.8 14-2.5 3-5 6.2-5.6 7-0.7 0.8-4.6 6-8.7 11.5-4.1 5.5-7.8 10.2-8.1 10.5-0.3 0.3-5.1 6.6-10.7 14-5.6 7.4-13 17.1-16.4 21.6-3.5 4.4-9.2 11.8-12.7 16.5-3.5 4.6-7.5 9.7-8.8 11.4-1.3 1.7-2.7 3.5-3.1 4-0.4 0.5-2.1 2.8-3.7 5-1.6 2.2-7 9.2-12 15.5-5 6.3-12.4 16-16.5 21.5-4.1 5.5-7.8 10.2-8.1 10.5-0.3 0.3-5.1 6.6-10.7 14-5.6 7.4-13 17.1-16.4 21.6-3.5 4.4-9.2 11.8-12.7 16.5-3.5 4.6-7.5 9.7-8.8 11.4-1.3 1.7-2.7 3.5-3.1 4-0.4 0.5-3.6 4.8-7.1 9.5-3.6 4.7-8.4 11-10.8 14-2.5 3-5 6.2-5.6 7-0.7 0.8-6.1 8-12.1 16-6 8-12 15.8-13.3 17.5-1.3 1.7-2.7 3.5-3.1 4-0.4 0.5-2.1 2.8-3.7 5-1.6 2.2-7 9.2-12 15.5-5 6.3-13.1 16.8-18 23.4-5 6.5-12.8 16.9-17.5 23.1-4.7 6.1-12.8 16.7-18 23.5-5.2 6.7-12.3 15.9-15.7 20.4-3.5 4.4-6.6 8.6-7.1 9.1-0.4 0.5-4.1 5.4-8.2 10.8-4.1 5.4-8.2 10.9-9 12.1-0.8 1.3-2.9 3.9-4.5 5.7-1.7 1.9-8.4 10.5-15 19.2-6.6 8.8-13.2 17.5-14.7 19.5-1.5 2.1-3.4 4.9-4.3 6.4-0.9 1.7-1.2 3.3-0.6 4 0.4 0.7 3.1 2.1 6 3 2.8 1 5.8 1.8 6.6 1.8 0.8 0 2.5 0.7 3.7 1.5 1.3 0.8 4.3 2.1 6.8 2.9 2.5 0.8 7 2.4 10 3.6 3 1.2 7.3 2.8 9.5 3.4 2.2 0.7 5.6 1.9 7.5 2.8 1.9 0.9 6.2 2.6 9.5 3.7 3.3 1.2 7.9 3.1 10.2 4.2 2.4 1 5 1.9 5.8 1.9 0.8 0 3.1 0.9 5 2 1.9 1.1 4.3 2 5.2 2 1 0 3.1 0.9 4.8 1.9 1.9 1.2 3.9 1.6 5.4 1.2 1.4-0.3 3.7-1.7 5.1-3.1 1.5-1.4 4-4.3 5.6-6.6 1.6-2.3 6.3-8.5 10.4-13.9 4.1-5.3 8.3-10.7 9.4-11.9 1-1.1 4.2-5.3 7.2-9.1 2.9-3.8 8.8-11.5 13.1-17.1 4.3-5.5 10.7-13.9 14.2-18.5 3.6-4.6 6.8-8.6 7.1-8.9 0.4-0.3 2.7-3.2 5.1-6.5 2.4-3.3 9.8-12.9 16.4-21.3 6.6-8.5 13.1-16.9 14.5-18.8 1.4-1.9 5.9-7.8 10-13.2 4.1-5.3 8.1-10.4 8.9-11.2 0.8-0.8 3.8-4.7 6.7-8.5 2.9-3.8 8.8-11.5 13.1-17.1 4.3-5.5 10.7-13.9 14.2-18.5 3.6-4.6 6.8-8.6 7.1-8.9 0.3-0.3 5.7-7.3 12-15.5 6.2-8.3 13.9-18.2 16.9-22 3.1-3.9 6.5-8.2 7.6-9.7 1.1-1.5 5.4-7.2 9.5-12.5 4.1-5.4 8.1-10.5 8.9-11.3 0.8-0.8 3.8-4.7 6.7-8.5 2.9-3.8 8.8-11.5 13.1-17.1 4.3-5.5 10.7-13.9 14.2-18.5 3.6-4.6 6.8-8.6 7.1-8.9 0.3-0.3 4.8-6.1 10-13 5.1-6.9 11.9-15.7 14.9-19.5 3.1-3.8 7.5-9.5 9.8-12.5 2.3-3 7.7-10 12-15.6 4.3-5.5 10.7-13.9 14.2-18.5 3.6-4.6 6.7-8.6 7-8.9 0.4-0.3 3.5-4.3 7-9 3.5-4.7 9.2-12.1 12.5-16.5 3.4-4.4 6.7-8.7 7.5-9.5 0.8-0.8 3.8-4.6 6.7-8.5 2.9-3.9 8.8-11.5 13.1-17.1 4.3-5.5 10.7-13.9 14.2-18.5 3.6-4.6 6.7-8.6 7-8.9 0.4-0.3 3.5-4.3 7-9 3.5-4.7 9.2-12.1 12.5-16.5 3.4-4.4 6.7-8.7 7.5-9.5 0.8-0.8 3.8-4.6 6.7-8.5 2.9-3.9 8.6-11.3 12.6-16.5 4-5.2 10.4-13.6 14.3-18.5 3.8-5 7.2-9.2 7.5-9.5 0.3-0.3 3.4-4.3 6.9-9 3.5-4.7 9.2-12.1 12.5-16.5 3.4-4.4 6.7-8.7 7.5-9.5 0.8-0.8 3.8-4.6 6.7-8.5 2.9-3.9 8.8-11.5 13.1-17.1 4.3-5.5 10.7-13.9 14.2-18.5 3.6-4.6 6.8-8.6 7.1-8.9 0.4-0.3 3.2-3.9 6.2-8 3.1-4.1 8.6-11.3 12.2-16 3.7-4.7 9.8-12.5 13.6-17.5 3.8-5 10.4-13.5 14.7-19.1 4.3-5.5 10.7-13.9 14.2-18.5 3.6-4.6 6.8-8.6 7.1-8.9 0.4-0.3 2.7-3.2 5.1-6.5 2.4-3.3 9.8-12.9 16.4-21.3 6.6-8.5 13.1-16.9 14.5-18.8 1.4-1.9 5.9-7.8 10-13.2 4.1-5.3 8.3-10.6 9.2-11.7 0.9-1.1 3.6-4.5 6-7.6 2.4-3.1 10.1-13.3 17.2-22.5 7.1-9.3 15.5-20.1 18.5-23.9 3.1-3.9 6.5-8.2 7.6-9.7 1.1-1.5 5.4-7.2 9.5-12.5 4.1-5.4 8.1-10.5 8.9-11.3 0.8-0.8 3.8-4.6 6.7-8.5 2.9-3.9 8.9-11.7 13.4-17.5 4.5-5.8 10.5-13.6 13.4-17.5 2.9-3.9 5.9-7.7 6.7-8.5 0.8-0.8 3-3.7 4.9-6.3 1.9-2.7 4.7-6.3 6.1-8 1.4-1.8 5.4-7 9-11.7 3.5-4.7 6.6-8.7 6.9-9 0.3-0.3 1.6-1.9 3-3.6 1.4-1.6 3.4-4.3 4.5-5.8 1.1-1.5 4.2-5.5 6.8-8.9 2.6-3.4 5.5-7.1 6.3-8.2 1.3-1.8 1.5-11.6 1.1-84.5-0.2-45.4-0.7-83.4-1-84.5-0.3-1.1-0.6-3-0.6-4.3-0.1-1.2-0.5-2.2-0.9-2.2-0.5 0-2 1.2-3.3 2.7zm-0.5 353.6c-1.7 1.8-5 5.7-7.2 8.7-2.2 3-6.6 8.9-9.8 13-3.2 4.1-8.5 10.9-11.8 15.1-3.4 4.2-7.3 9.1-8.7 11-1.5 1.9-5.1 6.5-8 10.4-2.9 3.8-8.2 10.6-11.7 15-3.5 4.4-6.9 8.7-7.6 9.5-0.6 0.8-3 4-5.3 7-2.3 3-6.2 8-8.5 11-2.4 3-6.4 8.2-9.1 11.5-2.6 3.3-5.1 6.5-5.5 7-0.4 0.5-2.1 2.8-3.7 5-1.7 2.1-7.6 9.8-13.3 17-5.6 7.1-10.6 13.5-11 14-0.5 0.5-2.1 2.8-3.8 5.1-1.6 2.2-4.6 6-6.6 8.5-2.1 2.4-6.7 8.2-10.3 12.9-3.5 4.7-6.8 9-7.3 9.5-0.4 0.5-2.1 2.8-3.7 5-1.6 2.2-3.6 4.7-4.5 5.6-0.8 0.9-2.5 2.9-3.7 4.5-1.2 1.6-6.5 8.5-11.8 15.4-5.2 6.9-10.5 13.6-11.7 15-1.2 1.4-5.1 6.3-8.7 11-3.6 4.7-10.8 14-16 20.7-5.3 6.6-11.3 14.3-13.3 17-2.1 2.6-8.5 10.9-14.3 18.3-5.8 7.4-12.2 15.7-14.3 18.4-2 2.6-8.3 10.7-14 18-5.7 7.2-10.9 13.8-11.5 14.6-0.7 0.8-2.6 3.3-4.2 5.5-1.7 2.1-7.6 9.8-13.3 17-5.6 7.1-10.6 13.5-11 14-0.5 0.5-2.1 2.8-3.8 5.1-1.6 2.2-4.6 6-6.6 8.5-2.1 2.4-6.7 8.2-10.3 12.9-3.5 4.7-6.8 9-7.3 9.5-0.4 0.5-2.1 2.8-3.7 5-1.6 2.2-3.6 4.7-4.5 5.6-0.8 0.9-2.5 2.9-3.7 4.5-1.2 1.6-6.5 8.5-11.8 15.4-5.2 6.9-10.5 13.6-11.7 15-1.2 1.4-4.4 5.4-7.1 9-2.8 3.6-8 10.3-11.6 15-3.6 4.7-8.6 11-11.1 14.1-2.5 3.1-6.2 7.8-8.2 10.5-2.1 2.7-8.5 11-14.3 18.4-5.8 7.4-12.2 15.7-14.3 18.4-2 2.6-8.3 10.7-14 18-5.7 7.2-10.9 13.8-11.5 14.6-0.7 0.8-2.6 3.3-4.2 5.5-1.7 2.1-7.6 9.8-13.3 17-5.6 7.1-10.6 13.5-11 14-0.4 0.5-2.1 2.8-3.7 5-1.7 2.1-7.6 9.8-13.3 17-5.6 7.1-10.6 13.5-11 14-0.5 0.5-2.1 2.8-3.8 5.1-1.6 2.2-4.6 6-6.6 8.5-2.1 2.4-8.1 10-13.3 16.9-5.3 6.9-10.5 13.6-11.7 15-1.2 1.4-5.1 6.3-8.7 11-3.6 4.7-10.9 14.1-16.3 21-5.4 6.9-10.4 13.2-11.1 14-0.7 0.8-2.6 3.3-4.2 5.5-1.7 2.1-7.6 9.8-13.3 17-5.6 7.1-10.6 13.5-11 14-0.5 0.5-2.1 2.8-3.8 5.1-1.6 2.2-4.6 6-6.6 8.5-2.1 2.4-10.1 12.5-17.8 22.4-7.7 9.9-14.6 18.7-15.3 19.5-0.7 0.8-2.6 3.3-4.2 5.5-1.7 2.1-7.6 9.8-13.3 17-5.6 7.1-10.6 13.5-11 14-0.4 0.5-2.1 2.8-3.7 5-1.6 2.2-4.4 5.6-6.2 7.5-1.8 1.9-4.3 5.5-5.5 7.9-2.3 4.3-2.3 4.3-0.3 5.7 1.1 0.8 4.5 2.2 7.5 3 3 0.8 7.4 2.4 9.7 3.4 2.4 1.1 5 2 5.8 2 0.8 0 3 0.8 4.7 1.8 1.8 1 4.4 2.1 5.8 2.5 1.4 0.3 5.4 1.7 9 3 3.6 1.4 8.1 3.1 10 3.8 1.9 0.7 5.3 2 7.5 3 2.2 1 6.4 2.7 9.2 3.8 2.9 1.2 6.1 2.1 7 2.1 1 0 2.2 0.4 2.8 0.9 0.5 0.5 3.9 2.1 7.5 3.4 3.6 1.4 7.3 2.8 8.2 3.1 1.2 0.4 2.5-0.2 3.7-1.7 1.1-1.2 6.5-8 12-15.2 5.6-7.2 11-13.9 12-15 1-1.1 4.7-5.8 8.2-10.5 3.5-4.7 8.7-11.3 11.4-14.7 2.8-3.4 7.9-9.8 11.5-14.3 3.6-4.5 7.8-9.9 9.5-12 1.6-2.1 4-5.1 5.1-6.7 1.2-1.5 6.9-8.9 12.8-16.3 5.8-7.4 13.4-17.1 16.9-21.4 3.4-4.4 8.7-11.2 11.7-15 3.1-3.9 10.7-13.6 17-21.6 6.3-8 13-16.5 14.9-18.9 2-2.4 5.4-6.7 7.6-9.6 2.2-2.9 7.6-10 12.1-15.7 4.5-5.6 8.7-11 9.5-11.8 0.8-0.8 5.1-6.1 9.4-11.8 4.4-5.7 10-13 12.5-16.2 2.5-3.2 8.1-10.4 12.6-16.1 4.5-5.7 8.7-11.1 9.5-11.9 0.8-0.8 4.4-5.3 7.9-10 3.6-4.7 7.1-9.2 7.9-10 0.8-0.8 3.1-3.8 5.1-6.5 2-2.8 7.6-10 12.4-16 4.8-6 9.5-11.9 10.4-13 1-1.1 4.6-5.8 8.2-10.5 3.6-4.7 6.7-8.7 7-9 0.3-0.3 1.6-1.9 3-3.6 1.4-1.6 3.4-4.3 4.5-5.8 1.1-1.5 6.7-8.7 12.5-15.9 5.8-7.3 13.5-17 17-21.7 3.6-4.7 7.3-9.4 8.3-10.5 1-1.1 3.3-3.9 5-6.3 1.8-2.4 5.7-7.4 8.7-11.1 3-3.8 8.4-10.6 12-15.2 3.6-4.6 8.8-11.3 11.5-14.9 2.8-3.5 5.8-7.4 6.8-8.5 1-1.1 3.3-3.9 5-6.3 1.8-2.4 5.7-7.4 8.7-11.1 3-3.8 8.4-10.6 12-15.2 3.6-4.6 8.8-11.3 11.5-14.9 2.8-3.5 6-7.6 7.2-9 1.2-1.4 5.2-6.3 8.8-11 3.6-4.7 9.2-11.9 12.5-16 3.2-4.1 9.4-12 13.7-17.5 4.4-5.5 11.6-14.7 16.2-20.5 4.5-5.8 10.9-13.9 14.1-18 3.2-4.1 9.7-12.5 14.5-18.5 4.8-6 12.4-15.6 16.8-21.3 4.5-5.7 10.2-12.9 12.7-16.2 2.5-3.2 8.1-10.5 12.6-16.1 4.4-5.7 8.7-11.1 9.5-11.9 0.8-0.8 4.4-5.3 7.9-10 3.6-4.7 7.1-9.2 7.9-10 0.8-0.8 2.6-3.1 4-5 1.4-1.9 5.7-7.5 9.6-12.5 3.9-5 11.7-14.9 17.4-22 5.6-7.1 10.8-13.7 11.4-14.5 0.7-0.8 2.8-3.5 4.7-6 1.9-2.4 3.9-4.9 4.5-5.5 0.5-0.6 2-2.6 3.2-4.5l2.3-3.5c-0.1-110-0.3-144.3-0.5-147-0.3-2.8-0.6-7.3-0.8-10.1-0.2-2.8-0.7-5.6-1-6.2-0.4-0.7-0.5-1.7-0.3-2.2 0.2-0.5 0.1-1-0.3-0.9-0.3 0-2 1.4-3.7 3.2zm-0.8 341.9c-2.5 2.9-7.7 9.3-11.6 14.3-3.9 5-7.6 9.7-8.3 10.5-0.7 0.8-2.6 3.3-4.2 5.5-1.6 2.2-3.6 4.7-4.5 5.5-0.8 0.9-2.8 3.3-4.5 5.5-1.6 2.2-3.3 4.2-3.6 4.5-0.3 0.3-1.9 2.3-3.5 4.6-1.6 2.2-4.6 6-6.6 8.5-2 2.4-5.2 6.2-7 8.5-1.8 2.3-8.7 11-15.3 19.4-6.6 8.5-13.4 17-15.1 18.9-1.7 2-6.1 7.6-10 12.6-3.8 5-9.3 11.9-12.2 15.5-2.9 3.6-5.6 7-6 7.5-0.4 0.5-2.1 2.8-3.7 5-1.6 2.2-3.6 4.7-4.5 5.5-0.8 0.9-2.8 3.3-4.5 5.5-1.6 2.2-3.2 4.2-3.5 4.5-0.4 0.3-1.9 2.3-3.5 4.5-1.6 2.2-3.4 4.5-4 5-0.7 0.5-3.1 3.5-5.4 6.5-2.3 3-6 7.8-8.1 10.5-2.2 2.8-9.1 11.5-15.5 19.5-6.3 8-15.2 19.2-19.7 25-4.5 5.8-10.6 13.4-13.5 17-3 3.6-5.7 7-6.1 7.5-0.4 0.5-2.1 2.8-3.7 5-1.6 2.2-3.6 4.7-4.5 5.5-0.8 0.9-2.8 3.3-4.5 5.5-1.6 2.2-3.2 4.2-3.5 4.5-0.4 0.3-1.9 2.3-3.5 4.5-1.6 2.2-3.6 4.7-4.5 5.6-0.8 0.9-2.6 3.1-4 4.9-1.4 1.8-3.8 5-5.5 7-1.7 2.1-8.4 10.6-15 19-6.6 8.5-13.4 17-15.1 18.9-1.7 2-6.1 7.6-10 12.6-3.8 5-9.3 11.9-12.2 15.5-2.9 3.6-5.6 7-6 7.5-0.4 0.5-2.1 2.8-3.7 5-1.6 2.2-3.6 4.7-4.5 5.5-0.8 0.9-2.8 3.3-4.5 5.5-1.6 2.2-3.2 4.2-3.5 4.5-0.4 0.3-1.9 2.3-3.5 4.5-1.6 2.2-3.6 4.7-4.5 5.6-0.8 0.9-2.6 3.1-4 4.9-1.4 1.9-3.7 4.8-5.1 6.4-1.4 1.7-3.2 4-4 5.2-0.8 1.1-3.1 4.1-5.1 6.5-2 2.4-8.3 10.2-14 17.4-5.7 7.2-13.5 17-17.3 22-3.8 5-9.2 11.8-12 15.1-2.7 3.4-6.1 7.6-7.5 9.4-1.4 1.9-4.9 6.3-7.8 9.9-2.9 3.6-5.9 7.3-6.5 8.1-0.7 0.8-2.6 3.3-4.2 5.5-1.6 2.2-3.4 4.5-4 5-0.7 0.5-2.9 3.3-5.1 6.1-2.1 2.8-5.2 6.8-6.9 9-1.6 2.1-6.8 8.6-11.5 14.4-4.6 5.8-9.1 11.2-9.9 12-0.8 0.8-2.6 3.1-4 5-1.4 1.9-8.9 11.4-16.6 21.1-7.7 9.7-17.8 22.5-22.5 28.5-4.7 6-10.3 12.9-12.6 15.4-2.3 2.5-4.6 5.4-5.2 6.5-0.8 1.5-0.8 2.4 0.1 3.7 0.7 0.9 3 2.3 5.2 3.1 2.2 0.8 5.6 2 7.5 2.7 1.9 0.7 4.8 1.8 6.5 2.5 1.6 0.7 5 2 7.5 2.8 2.5 0.8 6.1 2 8 2.7 1.9 0.8 5.3 2.1 7.5 3.1 2.2 1 6.4 2.7 9.2 3.8 2.9 1.2 6 2.1 6.8 2.1 0.8 0 2.7 0.7 4.2 1.5 1.6 0.8 5.9 2.6 9.8 4 3.8 1.5 8.6 3.3 10.5 4.2 1.9 0.9 4.8 1.8 6.5 2 1.6 0.2 3.6 0.9 4.3 1.6 1 0.9 1.8 0.9 3.8-0.3 1.4-0.8 5.1-4.9 8.2-9 3.1-4.1 6.3-8.2 7.1-9 0.8-0.8 4.4-5.3 8-10 3.6-4.7 7.4-9.4 8.4-10.5 1-1.1 4.3-5.2 7.2-9 2.9-3.8 6.5-8.3 7.9-10 1.5-1.7 5.1-6.2 8-10 3-3.8 6.4-8.1 7.6-9.5 1.2-1.4 4.6-5.7 7.5-9.5 3-3.8 7.9-10.2 11-14 3.1-3.8 8.7-10.8 12.5-15.5 3.8-4.7 9.7-12 13.2-16.4 3.4-4.3 8.3-10.4 10.8-13.6 2.5-3.2 7.4-9.3 10.8-13.6 3.5-4.4 9.4-11.7 13.2-16.4 3.8-4.7 9.7-12 13.2-16.4 3.4-4.3 8.3-10.4 10.8-13.6 2.5-3.2 7.4-9.3 10.8-13.6 3.5-4.4 9.4-11.7 13.2-16.4 3.8-4.7 9.7-12 13.2-16.4 3.4-4.3 8.3-10.4 10.8-13.6 2.5-3.2 7.4-9.3 10.8-13.6 3.5-4.4 9.4-11.7 13.2-16.4 3.8-4.7 9.7-12 13.2-16.4 3.4-4.3 8.3-10.4 10.8-13.6 2.5-3.2 7.4-9.3 10.8-13.6 3.5-4.4 9.4-11.7 13.2-16.4 3.8-4.7 9.7-12 13.2-16.4 3.4-4.3 8.3-10.4 10.8-13.6 2.5-3.2 7.3-9.3 10.8-13.6 3.5-4.4 9.4-11.7 13.2-16.4 3.8-4.7 9.6-11.9 13-16 3.3-4.1 7.9-10 10.2-13 2.3-3 6.7-8.5 9.7-12.1 3.1-3.6 6.5-7.8 7.6-9.4 1.1-1.5 4.5-5.8 7.5-9.4 3-3.6 6.8-8.4 8.5-10.6 1.6-2.2 6.3-8.1 10.5-13.1 4.1-5.1 9.4-11.8 11.8-15l4.3-5.9c-0.1-103.9-0.4-138-0.7-143-0.2-5-0.8-10.6-1.1-12.5-0.4-1.9-0.6-4.1-0.5-4.8 0.1-0.6-0.1-1.2-0.3-1.2-0.2 0-2.4 2.4-4.9 5.2zm2 326.6c-1.4 1.5-4.9 5.6-7.8 9.2-3 3.6-11.6 14.3-19.3 23.8-7.7 9.6-14.9 18.6-16 20.1-1.1 1.6-3.6 4.6-5.5 6.9-1.9 2.2-5.3 6.4-7.5 9.2-2.2 2.9-5.1 6.4-6.4 7.9-1.3 1.4-3.5 4.2-5 6.1-1.4 1.9-3.3 4.4-4.3 5.5-0.9 1.1-4.3 5.2-7.5 9.2-3.2 3.9-6.9 8.6-8.3 10.4-1.4 1.9-4.1 5.2-6.1 7.4-1.9 2.2-6.5 7.8-10.1 12.5-3.7 4.7-13.3 16.6-21.3 26.5-8.1 9.9-16.4 20.2-18.5 23-2.1 2.7-4.9 6.2-6.2 7.7-1.3 1.4-4.1 5-6.3 7.8-2.2 2.9-5.1 6.4-6.4 7.9-1.3 1.4-3.5 4.2-5 6.1-1.4 1.9-2.8 3.7-3.1 4-0.4 0.3-1.9 2.3-3.5 4.5-1.6 2.2-4.3 5.3-5.8 7-1.6 1.7-3.7 4.1-4.6 5.5-0.9 1.4-2.5 3.6-3.6 4.9-1.1 1.4-3.4 4.1-5.1 6-1.6 2-9.3 11.4-17 21-7.6 9.6-15.9 20-18.4 23.1-2.5 3.1-5.2 6.4-6 7.2-0.8 0.9-3.3 3.9-5.5 6.8-2.2 2.9-5.1 6.4-6.4 7.9-1.3 1.4-3.5 4.2-5 6.1-1.4 1.9-3.3 4.4-4.3 5.5-0.9 1.1-4.3 5.2-7.5 9.2-3.2 3.9-6.9 8.6-8.3 10.4-1.4 1.9-3.9 4.9-5.6 6.9-1.7 1.9-5.5 6.7-8.6 10.5-3.1 3.8-8.7 10.8-12.5 15.5-3.8 4.7-8.3 10.6-10.1 13.2-1.7 2.7-3.2 5-3.2 5.3 0 0.3 1 1.4 2.2 2.5 1.3 1 3.9 2.2 5.8 2.6 1.9 0.4 5.2 1.5 7.2 2.5 2.1 1.1 4.5 1.9 5.3 1.9 0.8 0 3 0.8 4.7 1.8 1.8 1 4.4 2.1 5.8 2.5 1.4 0.3 5.4 1.7 9 3 3.6 1.4 8.1 3.1 10 3.8 1.9 0.7 5.3 2 7.5 3 2.2 0.9 5.6 2.4 7.5 3.2 1.9 0.8 5.1 1.8 7 2.2 1.9 0.4 3.9 1.1 4.5 1.5 0.5 0.4 4.6 2.2 9 3.9 4.4 1.7 8.4 3.1 9 3.1 0.5-0.1 1.9-0.8 3-1.8 1.1-0.9 4.9-5.2 8.5-9.6 3.6-4.3 7.8-9.6 9.5-11.7 1.7-2.1 8.4-10.4 15-18.5 6.6-8.1 14.4-17.7 17.2-21.3 2.9-3.6 7.3-8.9 9.7-11.6 2.4-2.8 6.1-7.3 8.2-10 2.1-2.8 6.3-8 9.3-11.6 3.1-3.6 6.5-7.8 7.6-9.4 1.1-1.5 3.3-4.4 5-6.4 1.6-2 3.3-3.8 3.6-4.1 0.3-0.3 4.3-5.2 8.9-11 4.6-5.8 8.7-10.7 9-11 0.3-0.3 5-6 10.5-12.8 5.5-6.7 12.2-15.1 14.9-18.5 2.6-3.4 6.7-8.5 9.1-11.2 2.3-2.8 7.1-8.6 10.6-13 3.5-4.4 7.1-8.9 8-10 0.9-1.1 5.9-7.1 11.1-13.4 5.1-6.3 11.5-14.1 14.1-17.5 2.7-3.3 6.6-8.1 8.7-10.6 2.1-2.5 6.8-8.3 10.5-13 3.6-4.7 7.7-9.8 9.1-11.5 1.4-1.7 2.3-3.6 2-4.3-0.3-0.6-0.7-30.3-0.7-66-0.1-35.6-0.6-69-1-74.2-0.5-5.2-0.9-10.5-1.1-11.8-0.1-1.2-0.3-2.2-0.4-2.2-0.2 0-1.4 1.2-2.8 2.7zm-3.1 322c-2.9 3.1-5.4 6-5.4 6.3-0.1 0.4-1 1.8-2.2 3.1-1.1 1.3-3.9 4.6-6.2 7.3-2.3 2.8-5.8 6.9-7.7 9.2-1.9 2.3-5.2 6.4-7.2 9-2.1 2.7-5.4 6.7-7.3 8.9-2 2.2-7.5 8.8-12.3 14.6-4.8 5.8-14.1 17.2-20.7 25.4-6.6 8.2-13.6 16.7-15.6 18.9-1.9 2.3-5.9 7.3-8.9 11.1-3 3.8-8.2 10.2-11.5 14-3.3 3.8-6.7 8.3-7.5 9.8-1.4 2.7-1.3 3 0.5 4.3 1.1 0.8 2.8 1.4 3.7 1.4 1 0 3.7 0.9 6 1.9 2.4 1 7 2.9 10.3 4.1 3.3 1.2 8.1 3 10.7 4.1 2.7 1 5.4 1.9 6 1.9 0.7 0 3.1 0.9 5.3 1.9 2.2 1.1 6.7 2.9 10 4.1 3.3 1.2 8 3 10.5 3.9 2.5 1 6.1 2.4 8 3.1 1.9 0.6 6.4 2.3 10 3.7 3.6 1.3 8.2 3.1 10.2 3.9 2.1 0.8 5.7 2.1 8 3 2.4 0.8 5.6 2.1 7.3 2.9 1.7 0.7 5.7 2 9 3 3.3 0.9 6.2 1.4 6.4 1.1 0.2-0.3-0.1-0.6-0.7-0.6-0.8 0-1-1.1-0.7-3.3 0.3-1.7 0.5-39.7 0.5-84.2 0-44.5-0.2-82.1-0.4-83.5-0.3-1.4-0.8-5.7-1.2-9.5-0.3-3.8-0.6-7.8-0.6-8.8 0-0.9-0.2-1.7-0.5-1.7-0.2 0-2.8 2.6-5.8 5.7z"/></svg>