<?xml version="1.0" encoding="UTF-8" standalone="no"?>
<!-- Created with Inkscape (http://www.inkscape.org/) -->

<svg
   version="1.1"
   id="svg541"
   width="933.33331"
   height="740"
   viewBox="0 0 933.33331 740"
   sodipodi:docname="ngx-collection-logo.svg"
   inkscape:version="1.2.2 (b0a84865, 2022-12-01)"
   xmlns:inkscape="http://www.inkscape.org/namespaces/inkscape"
   xmlns:sodipodi="http://sodipodi.sourceforge.net/DTD/sodipodi-0.dtd"
   xmlns="http://www.w3.org/2000/svg"
   xmlns:svg="http://www.w3.org/2000/svg">
  <defs
     id="defs545" />
  <sodipodi:namedview
     id="namedview543"
     pagecolor="#ffffff"
     bordercolor="#000000"
     borderopacity="0.25"
     inkscape:showpageshadow="2"
     inkscape:pageopacity="0.0"
     inkscape:pagecheckerboard="0"
     inkscape:deskcolor="#d1d1d1"
     showgrid="false"
     inkscape:zoom="0.81326484"
     inkscape:cx="271.7442"
     inkscape:cy="446.96387"
     inkscape:window-width="1728"
     inkscape:window-height="1051"
     inkscape:window-x="0"
     inkscape:window-y="38"
     inkscape:window-maximized="1"
     inkscape:current-layer="g547" />
  <g
     inkscape:groupmode="layer"
     inkscape:label="Image"
     id="g547">
    <path
       style="fill:#3fbd52;fill-opacity:1"
       d="M 466.66666,82.480543 163.12819,476.55425 195.20395,488.92633 466.66666,139.7587 737.74264,490.30101 773.02598,477.4707 Z"
       id="path3101" />
    <path
       style="fill:#3fbd52;fill-opacity:1"
       d="m 466.66666,198.84981 -237.29571,303.66987 33.29578,12.64007 205.41035,-260.50867 204.62105,260.81696 32.98749,-12.94836 z"
       id="path3103" />
    <path
       style="fill:#3fbd52;fill-opacity:1"
       d="m 468.07708,311.37723 -172.73116,215.4977 32.98749,13.56495 138.33325,-173.56968 139.4399,173.26138 33.29578,-12.64006 z"
       id="path3105" />
    <path
       style="fill:#3fbd52;fill-opacity:1"
       d="m 467.37413,421.43829 -106.05323,131.02507 31.75431,12.02347 74.29892,-90.63852 73.68234,90.94682 32.0626,-12.33177 z"
       id="path3107" />
    <path
       style="fill:#3fbd52;fill-opacity:1"
       d="m 467.21998,527.49152 -40.2324,49.63538 40.2324,14.79812 40.849,-14.79812 z"
       id="path3109" />
    <path
       style="fill:#036c3e;fill-opacity:1"
       d="m 287.73679,483.36501 32.5357,12.42306 -24.92657,31.08686 -32.67919,-11.71518 z"
       id="path3111"
       sodipodi:nodetypes="ccccc" />
    <path
       style="fill:#036c3e;fill-opacity:1"
       d="m 418.5001,533.35249 33.59844,12.7946 -25.11096,30.97981 -33.91237,-12.64007 z"
       id="path3305"
       sodipodi:nodetypes="ccccc" />
    <path
       style="fill:#036c3e;fill-opacity:1"
       d="m 548.20161,521.58896 32.763,-12.69758 25.14195,31.2402 -32.98749,12.33178 z"
       id="path3307"
       sodipodi:nodetypes="ccccc" />
    <path
       style="fill:#036c3e;fill-opacity:1"
       d="m 681.11371,471.37449 32.78947,-12.38354 23.83946,31.31006 -32.05702,12.21867 z"
       id="path3309"
       sodipodi:nodetypes="ccccc" />
    <path
       style="fill:#039a4d;fill-opacity:1"
       d="M 466.66666,82.480543 V 139.7587 l 271.07598,350.54231 35.28334,-12.83031 z"
       id="path5334" />
    <path
       style="fill:#039a4d;fill-opacity:1"
       d="m 466.66666,198.84981 1.41042,55.80127 204.62105,260.81696 32.98749,-12.94836 z"
       id="path7274" />
    <path
       style="fill:#039a4d;fill-opacity:1"
       d="m 468.07708,311.37723 -1.41042,55.49297 139.4399,173.26138 33.29578,-12.64006 z"
       id="path8002" />
    <path
       style="fill:#039a4d;fill-opacity:1"
       d="m 467.37413,421.43829 v 52.41002 l 73.68234,90.94682 32.0626,-12.33177 z"
       id="path8004" />
    <path
       style="fill:#039a4d;fill-opacity:1"
       d="m 467.21998,527.49152 v 64.4335 l 40.849,-14.79812 z"
       id="path8006" />
  </g>
</svg>
